<svg width="70" height="95" viewBox="0 0 70 95" fill="none" xmlns="http://www.w3.org/2000/svg">
<g clip-path="url(#clip0)">
<path d="M66.6447 57.0993C65.5549 56.0413 64.2047 55.3251 62.7515 54.9976C62.469 51.6486 61.6253 48.3952 60.265 45.3046C59.5263 43.626 58.6161 42.0268 57.5565 40.5354C56.947 39.6788 56.285 38.865 55.621 38.0511C55.5625 37.9799 55.0963 37.3675 55.3627 37.7317C55.2113 37.5262 55.0599 37.3227 54.9126 37.1132C54.628 36.7083 54.3556 36.2953 54.0952 35.8741C53.6048 35.0785 53.1607 34.2545 52.7672 33.4061C52.6764 33.2087 52.5593 33.0032 52.4947 32.7957C52.6602 33.3288 52.4624 32.7123 52.4079 32.5678C52.2445 32.1466 52.0931 31.7234 51.9538 31.2941C51.7056 30.5312 51.4977 29.7539 51.3262 28.9686C51.2454 28.5983 51.1748 28.2259 51.1102 27.8515C51.084 27.6928 51.0577 27.5341 51.0335 27.3734C51.0275 27.3327 51.0234 27.29 51.0174 27.2452C51.0113 27.2167 51.0073 27.1883 51.0032 27.1659V27.1638C50.9992 27.1435 50.9972 27.1232 50.9931 27.1048C50.9952 27.115 50.9972 27.1211 50.9992 27.1313C50.7409 24.9461 50.7913 22.7589 50.9467 20.5696C51.1223 18.0752 50.7832 15.5115 49.9295 13.1493C50.8438 12.8116 51.6874 12.2704 52.3837 11.5094C53.9297 9.82271 54.5291 7.53986 54.0447 5.2977C53.0901 0.876455 47.6065 -1.37384 43.8788 1.18775C42.8414 1.90191 41.9917 2.8887 41.4528 4.01792C36.9562 1.96702 31.5069 1.85918 26.984 3.75342C26.5803 3.92229 26.1888 4.10134 25.8073 4.29259C25.4662 3.39736 24.9375 2.5713 24.2371 1.89784C22.5438 0.268102 20.0916 -0.385014 17.8211 0.225374C15.5727 0.831693 13.7482 2.66896 13.1165 4.92129C12.4707 7.22042 13.1327 9.73929 14.7634 11.4565C15.5667 12.3009 16.6525 12.9581 17.7807 13.2633C17.5829 13.8228 17.4154 14.3905 17.2802 14.9642C16.8987 16.5777 16.6687 18.3234 16.7696 19.9857C16.8947 22.0203 17.0461 24.0285 16.8947 26.0692C16.8685 26.409 16.8382 26.7467 16.7998 27.0845C16.7938 27.1394 16.7776 27.2269 16.7635 27.3042C16.7716 27.2615 16.7837 27.2106 16.7958 27.1496C16.7534 27.347 16.7373 27.5545 16.705 27.7539C16.5778 28.5311 16.4164 29.3022 16.2146 30.0612C15.9905 30.9076 15.7221 31.7397 15.4052 32.5556C15.377 32.6289 15.3467 32.7021 15.3184 32.7733C15.2559 32.7998 15.0843 33.3064 15.052 33.3735C14.8381 33.8354 14.608 34.2891 14.3618 34.7347C13.8855 35.6014 13.3527 36.4377 12.7694 37.2353C12.7553 37.2536 12.7149 37.3105 12.6765 37.3614C12.6321 37.4204 12.5615 37.514 12.5413 37.5384C12.3799 37.7419 12.2164 37.9392 12.0509 38.1386C11.7421 38.5049 11.4373 38.8752 11.1447 39.2536C9.90952 40.8467 8.80755 42.5253 7.92154 44.3422C6.12932 48.0106 5.08185 52.027 4.90626 56.1085C2.35115 57.2031 0.445911 59.6752 0.0725332 62.4748C-0.371483 65.8096 1.24716 69.2623 4.26647 70.827C5.6187 71.5289 7.11625 71.8463 8.60774 71.7527C11.3546 76.6684 15.486 80.6013 20.4024 83.2321C19.8272 84.5709 19.6072 86.05 19.807 87.5455C20.1078 89.7999 21.2884 91.7185 23.0847 93.0756C24.8567 94.4164 27.0869 94.8233 29.2464 94.4876C31.3696 94.158 33.2063 92.8498 34.4495 91.1244C34.7603 90.6931 35.0207 90.2271 35.2326 89.7388C35.3456 89.9443 35.4707 90.1478 35.6039 90.3411C36.8048 92.0807 38.6212 93.4439 40.7243 93.8203C42.8636 94.2028 45.1422 93.8508 46.9304 92.5466C48.6439 91.2973 49.9517 89.4601 50.2928 87.3237C50.5875 85.4803 50.313 83.6085 49.4795 81.9991C53.6956 79.2727 57.2134 75.4333 59.5324 70.9572C60.8564 71.2176 62.2328 71.1667 63.5346 70.7069C65.3349 70.0701 66.8425 68.8981 67.8718 67.2725C69.8881 64.0903 69.325 59.6996 66.6447 57.0993Z" fill="black"/>
<path d="M48.548 85.8167C48.548 85.8045 48.548 85.7475 48.548 85.7332C49.2867 85.5196 49.21 84.6854 48.4228 84.6345C48.4168 84.6101 48.4128 84.5837 48.4067 84.5593C49.107 84.2174 48.8769 83.3914 48.0818 83.4992C48.0717 83.4768 48.0636 83.4524 48.0535 83.43C48.6812 82.9601 48.3058 82.1889 47.5409 82.4473C47.5267 82.427 47.5126 82.4046 47.4985 82.3842C47.7972 82.0546 47.7609 81.6945 47.5489 81.5155C47.3956 81.8044 46.9959 81.8308 46.6528 81.4463C46.6306 81.4585 46.6104 81.4707 46.5882 81.4809C46.782 82.2479 46.1362 82.5491 45.6518 81.961C45.6296 81.9712 45.6074 81.9814 45.5872 81.9936C45.7466 82.7484 45.1008 83.0516 44.6346 82.4372C44.6124 82.4473 44.5902 82.4575 44.568 82.4677C44.6911 83.2245 44.0372 83.5013 43.5972 82.8665C43.575 82.8746 43.5508 82.8848 43.5266 82.8929C43.6154 83.6498 42.9554 83.8919 42.5416 83.253C42.5174 83.2612 42.4932 83.2714 42.469 83.2795C42.5255 84.0364 41.8595 84.248 41.472 83.5949C41.4457 83.603 41.4215 83.6091 41.3953 83.6172C41.4195 84.3985 40.7414 84.5471 40.3882 83.8919C40.3619 83.898 40.3357 83.9062 40.3095 83.9123C40.2953 84.6752 39.6253 84.8258 39.2923 84.1401C39.266 84.1462 39.2398 84.1503 39.2135 84.1564C39.1691 84.9031 38.495 85.0557 38.1863 84.3416C38.16 84.3456 38.1338 84.3497 38.1075 84.3538C38.0349 85.1005 37.3446 85.2164 37.0722 84.4962C37.0459 84.4982 37.0217 84.5023 36.9955 84.5043C36.8926 85.2592 36.1942 85.3243 35.9541 84.602C35.9298 84.604 35.9036 84.6061 35.8794 84.6081C35.8572 84.7342 35.8188 84.836 35.7704 84.9214C35.8451 85.0557 35.9803 85.1758 36.1841 85.249C36.1821 85.2755 36.1801 85.2999 36.1781 85.3263C35.4112 85.4626 35.4011 86.307 36.1821 86.4352C36.1842 86.4616 36.1882 86.4881 36.1902 86.5145C35.4697 86.7851 35.615 87.6193 36.4001 87.601C36.4082 87.6275 36.4162 87.6539 36.4243 87.6804C35.7724 88.0914 36.0711 88.8686 36.836 88.7038C36.8482 88.7282 36.8623 88.7526 36.8764 88.7791C36.3234 89.2999 36.7533 90.0141 37.4778 89.7028C37.496 89.7252 37.5122 89.7455 37.5303 89.7679C37.0782 90.3946 37.6494 91.0029 38.2973 90.5573C38.3174 90.5757 38.3396 90.5919 38.3598 90.6082C38.0268 91.3122 38.7049 91.8086 39.262 91.2389C39.2842 91.2512 39.3064 91.2634 39.3306 91.2776C39.1288 92.0406 39.8957 92.3987 40.3357 91.7293C40.3599 91.7374 40.3841 91.7456 40.4084 91.7537C40.3539 92.5391 41.1713 92.7486 41.478 92.0101C41.5043 92.0141 41.5305 92.0182 41.5567 92.0202C41.6577 92.8015 42.4872 92.8382 42.6527 92.0691C42.6809 92.067 42.7071 92.065 42.7354 92.065C42.9857 92.8137 43.799 92.6754 43.8192 91.9063C43.8475 91.9002 43.8737 91.8921 43.902 91.8839C44.2874 92.5635 45.0624 92.2766 44.9333 91.5136C44.9595 91.5014 44.9837 91.4892 45.01 91.477C45.5166 92.0711 46.229 91.6418 45.9505 90.9114C45.9727 90.8951 45.9949 90.8808 46.0151 90.8646C46.6347 91.3651 47.2482 90.7873 46.8325 90.126C46.8506 90.1077 46.8668 90.0894 46.8829 90.069C47.5792 90.4495 48.104 89.772 47.553 89.188C47.5651 89.1677 47.5792 89.1473 47.5933 89.127C48.3744 89.3813 48.7256 88.5899 48.0918 88.1361C48.0999 88.1138 48.11 88.0914 48.1181 88.067C48.9113 88.1646 49.1454 87.3365 48.4269 87.0008C48.4309 86.9764 48.437 86.9499 48.441 86.9255C49.2322 86.8543 49.2846 86.0161 48.548 85.8167Z" fill="#75C4F4"/>
<path d="M22.7852 82.2842C22.7912 82.3081 22.7972 82.3321 22.8052 82.356C22.8072 82.3361 22.8092 82.3161 22.8132 82.2962C22.8032 82.2942 22.7932 82.2902 22.7852 82.2842Z" fill="#D55849"/>
<path d="M34.0159 86.4536C34.0159 86.4414 34.0159 86.3844 34.0159 86.3702C34.7526 86.1565 34.6799 85.3223 33.8908 85.2715C33.8847 85.2471 33.8807 85.2206 33.8746 85.1962C33.913 85.1779 33.9473 85.1575 33.9796 85.1352C33.8625 85.0436 33.7636 84.891 33.7111 84.6753C33.6869 84.6753 33.6607 84.6753 33.6365 84.6733C33.4407 85.4363 32.7383 85.3976 32.589 84.6407C32.5648 84.6387 32.5405 84.6387 32.5163 84.6367C32.2963 85.3752 31.5879 85.3488 31.4689 84.5594C31.4446 84.5573 31.4224 84.5553 31.3982 84.5533C31.152 85.2816 30.4335 85.2328 30.3528 84.4352C30.3306 84.4332 30.3084 84.4291 30.2862 84.4251C30.0076 85.1616 29.2871 85.0477 29.2427 84.2623C29.2205 84.2582 29.2003 84.2542 29.1781 84.2501C28.8714 84.9765 28.1549 84.834 28.1408 84.0446C28.1185 84.0405 28.0984 84.0365 28.0762 84.0304C27.7411 84.7527 27.0307 84.5756 27.0489 83.7821C27.0287 83.776 27.0065 83.772 26.9863 83.7659C26.6129 84.4881 25.9186 84.2623 25.9691 83.4769C25.9489 83.4708 25.9267 83.4647 25.9065 83.4566C25.5089 84.1504 24.8167 83.9266 24.9015 83.1249C24.8813 83.1168 24.8591 83.1107 24.8389 83.1026C24.4191 83.7679 23.7268 83.5339 23.8499 82.7302C23.8298 82.7221 23.8096 82.714 23.7894 82.7058C23.414 83.247 22.8852 83.1412 22.8045 82.6407C22.1263 82.4271 21.757 83.1127 22.306 83.6072C22.2939 83.6316 22.2818 83.656 22.2696 83.6784C21.4886 83.5156 21.206 84.3152 21.8741 84.712C21.866 84.7364 21.8599 84.7628 21.8539 84.7872C21.0587 84.773 20.9235 85.6174 21.6561 85.8778C21.6541 85.9042 21.6521 85.9287 21.65 85.9551C20.867 86.0935 20.8912 86.9378 21.6541 87.064C21.6561 87.0904 21.6601 87.1169 21.6621 87.1433C20.9416 87.4139 21.0869 88.2481 21.8721 88.2298C21.8801 88.2563 21.8882 88.2827 21.8963 88.3092C21.2444 88.7181 21.5431 89.4974 22.308 89.3326C22.3201 89.357 22.3342 89.3814 22.3484 89.4079C21.7933 89.9308 22.2313 90.6388 22.9498 90.3316C22.968 90.354 22.9841 90.3743 23.0023 90.3967C22.5522 91.0193 23.1153 91.6337 23.7692 91.1861C23.7894 91.2044 23.8116 91.2207 23.8318 91.237C23.4967 91.945 24.1809 92.4333 24.7339 91.8677C24.7561 91.8799 24.7783 91.8921 24.8026 91.9064C24.6007 92.6714 25.3697 93.0234 25.8076 92.3581C25.8319 92.3662 25.8561 92.3743 25.8803 92.3825C25.8258 93.1699 26.6412 93.3774 26.95 92.6389C26.9762 92.6429 27.0025 92.647 27.0287 92.649C27.1276 93.4283 27.9591 93.4669 28.1246 92.6979C28.1529 92.6958 28.1791 92.6938 28.2074 92.6938C28.4576 93.4405 29.271 93.3062 29.2912 92.5351C29.3194 92.529 29.3456 92.5208 29.3739 92.5127C29.7614 93.1963 30.5324 92.8993 30.4052 92.1424C30.4315 92.1302 30.4557 92.118 30.4819 92.1058C30.9865 92.6958 31.701 92.2726 31.4224 91.5402C31.4446 91.5239 31.4668 91.5096 31.487 91.4934C32.1006 91.9898 32.7242 91.4221 32.3044 90.7548C32.3226 90.7365 32.3387 90.7182 32.3549 90.6978C33.0572 91.0803 33.5719 90.3967 33.0249 89.8168C33.037 89.7965 33.0512 89.7761 33.0653 89.7558C33.8282 90.004 34.2157 89.2329 33.5638 88.7649C33.5719 88.7425 33.582 88.7202 33.59 88.6958C34.4014 88.7954 34.5971 87.9551 33.8988 87.6296C33.9029 87.6052 33.9089 87.5787 33.913 87.5543C34.686 87.4933 34.7687 86.6571 34.0159 86.4536Z" fill="#D55849"/>
<path d="M60.9433 57.4762C60.9433 57.4539 60.9433 57.4315 60.9433 57.4071C61.7002 57.228 61.6861 56.4976 60.9232 56.345C60.9232 56.3206 60.9211 56.2982 60.9211 56.2738C61.6861 56.0601 61.6195 55.3358 60.8606 55.2158C60.8586 55.1934 60.8586 55.169 60.8566 55.1466C61.6154 54.8963 61.5105 54.1801 60.7516 54.0906C60.7496 54.0682 60.7456 54.0438 60.7435 54.0214C61.4923 53.7407 61.3611 53.0306 60.5962 52.9716C60.5922 52.9472 60.5881 52.9248 60.5861 52.9004C61.3107 52.5911 61.1694 51.8871 60.3984 51.8586C60.3944 51.8342 60.3883 51.8118 60.3823 51.7874C61.0846 51.4497 60.9272 50.7518 60.1502 50.7559C60.1441 50.7314 60.1381 50.7091 60.132 50.6847C60.8101 50.3225 60.6406 49.6307 59.8595 49.6633C59.8535 49.6389 59.8474 49.6144 59.8394 49.59C60.4933 49.1994 60.2975 48.5178 59.5225 48.5829C59.5144 48.5585 59.5063 48.534 59.4983 48.5117C60.128 48.0986 59.9181 47.4231 59.1431 47.5188C59.133 47.4944 59.1249 47.4699 59.1168 47.4455C59.7203 47.0081 59.4882 46.3448 58.7192 46.4709C58.7091 46.4465 58.697 46.4221 58.6869 46.3997C59.2722 45.9358 59.0058 45.2847 58.249 45.4434C58.2369 45.419 58.2268 45.3967 58.2147 45.3722C58.7858 44.8799 58.475 44.2491 57.7383 44.4343C57.7262 44.4099 57.7141 44.3875 57.7 44.3631C58.249 43.8442 57.9079 43.2318 57.1813 43.4495C57.1672 43.4271 57.1551 43.4048 57.1409 43.3824C57.6758 42.8391 57.2984 42.2389 56.5859 42.4871C56.5718 42.4648 56.5577 42.4444 56.5435 42.422C57.0542 41.8584 56.6586 41.2725 55.9522 41.5512C55.9381 41.5309 55.9219 41.5105 55.9078 41.4902C56.3982 40.9042 55.9744 40.3365 55.2801 40.6438C55.264 40.6234 55.2498 40.6031 55.2337 40.5848C55.6979 39.9825 55.2579 39.4311 54.5778 39.7628C54.5677 39.7506 54.5434 39.72 54.5293 39.7038C54.9733 39.0893 54.5818 38.5949 53.8916 38.9021C53.8754 38.8818 53.8593 38.8614 53.8431 38.8391C54.3053 38.2531 53.9461 37.7383 53.2417 38.011C53.2276 37.9886 53.2114 37.9682 53.1973 37.9458C53.6938 37.368 53.3224 36.8655 52.6342 37.0933C52.62 37.071 52.6059 37.0486 52.5898 37.0242C53.0984 36.4809 52.7694 35.9539 52.067 36.1472C52.0529 36.1228 52.0408 36.0984 52.0267 36.076C52.5494 35.5633 52.2588 35.016 51.5443 35.1788C51.5322 35.1543 51.5201 35.1279 51.508 35.1035C52.0287 34.6355 51.8208 34.0536 51.07 34.1859C51.0579 34.1594 51.0458 34.135 51.0357 34.1085C51.6089 33.6385 51.3607 33.0811 50.6401 33.1726C50.6301 33.1462 50.62 33.1197 50.6099 33.0933C51.2214 32.6436 50.9631 32.0821 50.2567 32.137C50.2486 32.1105 50.2385 32.0861 50.2304 32.0597C50.842 31.6568 50.6644 31.0586 49.9216 31.0851C49.9136 31.0586 49.9055 31.0342 49.8994 31.0078C50.5412 30.6273 50.3798 30.0271 49.6351 30.0189C49.629 29.9925 49.6229 29.9681 49.6169 29.9416C50.2869 29.5917 50.1376 28.9752 49.3969 28.9386C49.3929 28.9141 49.3868 28.8897 49.3828 28.8633C50.0569 28.552 49.9701 27.9212 49.2092 27.85C49.2052 27.8256 49.2011 27.7992 49.1971 27.7747C49.9015 27.4879 49.8086 26.8551 49.074 26.7534C49.072 26.7269 49.0679 26.7025 49.0659 26.676C49.7662 26.4217 49.7198 25.793 48.9932 25.6526C48.9912 25.6241 48.9912 25.5977 48.9892 25.5692C49.6714 25.3434 49.6694 24.7289 48.961 24.5519C48.961 24.5214 48.961 24.4909 48.961 24.4583C49.6391 24.2528 49.6451 23.6526 48.965 23.4491C48.965 23.4166 48.967 23.382 48.967 23.3494C49.6451 23.1622 49.6593 22.5661 48.9953 22.3423C48.9973 22.3097 48.9973 22.2751 48.9993 22.2426C49.6936 22.0758 49.7117 21.4633 49.0417 21.2273C49.0437 21.1968 49.0437 21.1663 49.0457 21.1378C49.7763 20.9893 49.7884 20.33 49.0942 20.1022C49.0962 20.0757 49.0962 20.0493 49.0982 20.0208C49.8409 19.8763 49.8611 19.1337 49.1204 18.9567C49.1204 18.9262 49.1204 18.8977 49.1204 18.8671C49.8389 18.6372 49.7622 17.9556 49.0639 17.8213C49.0619 17.7888 49.0578 17.7583 49.0538 17.7257C49.7319 17.4571 49.631 16.7735 48.9206 16.6881C48.9145 16.6575 48.9105 16.627 48.9065 16.5945C49.5523 16.2832 49.4413 15.5995 48.6945 15.5649C48.6865 15.5365 48.6804 15.5059 48.6723 15.4775C49.3404 15.1051 49.1164 14.4296 48.3817 14.4601C48.3736 14.4337 48.3656 14.4093 48.3575 14.3828C48.9953 13.98 48.7551 13.2801 47.9902 13.3838C47.9801 13.3614 47.97 13.337 47.9599 13.3147C48.5896 12.8508 48.2788 12.1671 47.5139 12.3421C47.5038 12.3218 47.4937 12.3014 47.4836 12.2811C47.6531 12.1386 47.7702 11.9637 47.8267 11.689C47.8549 11.6869 47.8832 11.6849 47.9115 11.6829C48.1819 12.4398 49.0477 12.2383 49.0114 11.4672C49.0376 11.4591 49.0659 11.4509 49.0921 11.4408C49.5341 12.0857 50.3293 11.7073 50.0992 10.9463C50.1235 10.9301 50.1457 10.9158 50.1699 10.8995C50.7612 11.4245 51.4434 10.8405 51.0216 10.163C51.0398 10.1427 51.0579 10.1244 51.0741 10.104C51.7885 10.4784 52.3032 9.7276 51.7239 9.17825C51.7361 9.15587 51.7482 9.13349 51.7583 9.11314C52.5353 9.3044 52.8764 8.45189 52.17 8.05717C52.176 8.03072 52.1821 8.00631 52.1881 7.97986C52.9894 7.96155 53.0863 7.06834 52.3335 6.85674C52.3355 6.77943 52.3355 6.86285 52.3335 6.77129C53.0822 6.54748 52.9712 5.65835 52.172 5.65224C52.1659 5.62579 52.1579 5.60138 52.1518 5.57493C52.8522 5.16597 52.4949 4.32567 51.726 4.52506C51.7139 4.50268 51.7017 4.4803 51.6896 4.45792C52.2547 3.90043 51.734 3.15983 51.0256 3.54437C51.0075 3.52402 50.9893 3.50368 50.9711 3.48537C51.3829 2.79563 50.6805 2.23407 50.1053 2.76714C50.0811 2.7529 50.0569 2.73662 50.0347 2.72238C50.2547 1.95533 49.4474 1.5952 49.0175 2.24424C48.9912 2.2361 48.963 2.22593 48.9367 2.21779C48.9589 1.4487 48.0931 1.25745 47.8327 2.01637C47.8045 2.01433 47.7762 2.01433 47.746 2.0123C47.5704 1.23914 46.6884 1.30831 46.6278 2.09775C46.6016 2.10385 46.5754 2.10792 46.5491 2.11403C46.2 1.41005 45.3402 1.67658 45.4835 2.47416C45.4593 2.48636 45.4351 2.49857 45.4088 2.51078C44.8821 1.9065 44.1414 2.40295 44.4643 3.12117C44.4421 3.13948 44.4219 3.15576 44.3997 3.17407C43.7559 2.73459 43.1464 3.37957 43.6388 4.0042C43.6227 4.02658 43.6065 4.05099 43.5904 4.07337C42.8416 3.80277 42.4339 4.60441 43.0616 5.07238C43.0515 5.09883 43.0414 5.12324 43.0333 5.14969C42.2422 5.07237 42.0323 5.9493 42.7649 6.24839C42.7629 6.2667 42.7609 6.28705 42.7589 6.30536C42.5752 6.28705 42.3673 6.3786 42.1917 6.55155C42.1695 6.53731 42.1453 6.52306 42.1231 6.50882C42.331 5.77229 41.6912 5.42844 41.1967 6.00423C41.1725 5.99203 41.1483 5.97982 41.1241 5.96761C41.2734 5.21276 40.6155 4.92792 40.1634 5.5322C40.1392 5.52203 40.1149 5.51185 40.0887 5.50168C40.1815 4.75904 39.5155 4.4864 39.0998 5.13952C39.0735 5.13138 39.0473 5.12324 39.0231 5.11307C39.0654 4.33584 38.3671 4.16697 38.0119 4.82212C37.9857 4.81601 37.9594 4.80991 37.9352 4.8038C37.9231 4.04896 37.2288 3.88619 36.9059 4.58406C36.8797 4.57999 36.8534 4.57389 36.8272 4.56982C36.7646 3.81091 36.0562 3.70918 35.7878 4.4213C35.7616 4.41926 35.7353 4.41519 35.7071 4.41316C35.592 3.65424 34.8816 3.60948 34.6596 4.33381C34.6333 4.33177 34.6071 4.33177 34.5809 4.32974C34.4214 3.59524 33.707 3.56675 33.5294 4.3216C33.5031 4.3216 33.4749 4.32363 33.4486 4.32363C33.2347 3.57489 32.5223 3.64407 32.3991 4.38264C32.3729 4.38467 32.3467 4.38874 32.3204 4.39078C32.0661 3.68069 31.3557 3.74987 31.277 4.52099C31.2508 4.52506 31.2245 4.52913 31.1983 4.5332C30.8915 3.82922 30.1891 3.97368 30.1649 4.73259C30.1387 4.7387 30.1125 4.7448 30.0882 4.7509C29.733 4.06727 29.0448 4.26056 29.071 5.02151C29.0468 5.02965 29.0206 5.03575 28.9943 5.04389C28.6048 4.39688 27.9126 4.61662 27.9973 5.38978C27.9731 5.39995 27.9489 5.40809 27.9247 5.41826C27.4706 4.77328 26.8126 5.09272 26.9539 5.8374C26.9317 5.84757 26.9095 5.85774 26.8873 5.86792C26.4029 5.26973 25.7409 5.59731 25.9468 6.36233C25.9266 6.37454 25.9064 6.38674 25.8842 6.39895C25.3453 5.81705 24.7116 6.22601 24.98 6.96254C24.9619 6.97475 24.9417 6.98899 24.9235 7.0012C24.8771 6.95848 24.8287 6.91982 24.7802 6.8893C24.6793 6.76315 24.54 6.68583 24.3867 6.64311C24.3887 6.56579 24.3887 6.64921 24.3867 6.55765C25.1334 6.33588 25.0244 5.44471 24.2252 5.43861C24.2191 5.41216 24.2111 5.38774 24.205 5.36129C24.9054 4.95233 24.5481 4.11203 23.7792 4.31142C23.7671 4.28904 23.7549 4.26666 23.7428 4.24428C24.31 3.68476 23.7852 2.94822 23.0788 3.33073C23.0607 3.31039 23.0425 3.29004 23.0243 3.27173C23.434 2.58403 22.7377 2.0184 22.1585 2.55351C22.1343 2.53926 22.1101 2.52299 22.0879 2.50875C22.3079 1.74576 21.5026 1.37749 21.0707 2.03061C21.0444 2.02247 21.0162 2.0123 20.9899 2.00416C21.0121 1.22896 20.1463 1.04788 19.8859 1.80273C19.8577 1.80069 19.8294 1.8007 19.7992 1.79866C19.6216 1.02347 18.7416 1.09671 18.681 1.88411C18.6548 1.89022 18.6286 1.89429 18.6023 1.90039C18.2532 1.19438 17.3954 1.46702 17.5367 2.26052C17.5125 2.27273 17.4883 2.28494 17.462 2.29714C16.9393 1.69693 16.1925 2.1832 16.5175 2.90753C16.4953 2.92584 16.4751 2.94212 16.4529 2.96043C15.807 2.52095 15.2016 3.16796 15.692 3.79056C15.6759 3.81294 15.6597 3.83736 15.6436 3.85974C14.9009 3.58913 14.4851 4.39077 15.1148 4.85874C15.1047 4.88519 15.0946 4.90961 15.0865 4.93606C14.2974 4.85874 14.0835 5.73363 14.8181 6.03475C14.8141 6.0612 14.8121 6.08765 14.808 6.1141C14.0229 6.23211 14.035 7.13956 14.8141 7.24536C14.8181 7.27181 14.8221 7.30029 14.8262 7.32674C14.1016 7.64211 14.3277 8.50479 15.1087 8.42137C15.1188 8.44782 15.1289 8.47427 15.139 8.50072C14.5295 8.97682 14.9473 9.76626 15.688 9.48548C15.7041 9.50786 15.7223 9.53228 15.7404 9.55466C15.2561 10.1895 15.8837 10.8202 16.5195 10.3685C16.5397 10.3848 16.5619 10.4031 16.5821 10.4214C16.2672 11.1478 17.022 11.632 17.5387 11.0155C17.5629 11.0277 17.5872 11.0379 17.6114 11.0481C17.4782 11.8477 18.346 12.1081 18.6831 11.3919C18.7093 11.398 18.7355 11.4021 18.7618 11.4062C18.8344 12.1976 19.7184 12.2526 19.8819 11.4733C19.9102 11.4713 19.9384 11.4692 19.9667 11.4672C20.0414 11.6747 20.1705 11.8477 20.3804 11.9148C20.3986 11.9331 20.4167 11.9515 20.4349 11.9698C20.4228 11.9921 20.4107 12.0125 20.4006 12.0349C19.6397 11.8477 19.335 12.5293 19.9344 12.9952C19.9243 13.0196 19.9142 13.042 19.9041 13.0664C19.1574 12.9525 18.8768 13.628 19.5227 14.0593C19.5146 14.0858 19.5045 14.1102 19.4964 14.1366C18.7255 14.0817 18.5438 14.7877 19.1937 15.156C19.1876 15.1804 19.1816 15.2069 19.1755 15.2313C18.4328 15.2333 18.2411 15.9393 18.9555 16.273C18.9515 16.2974 18.9454 16.3239 18.9414 16.3483C18.1664 16.4032 18.0695 17.1316 18.7981 17.4042C18.7961 17.4287 18.7941 17.451 18.7921 17.4755C17.9928 17.5772 17.9726 18.33 18.7174 18.5436C18.7174 18.564 18.7154 18.5864 18.7133 18.6067C17.9081 18.7491 17.9363 19.5304 18.7012 19.6871C18.7012 19.7074 18.7012 19.7278 18.7012 19.7481C17.9747 19.9435 17.9323 20.68 18.7396 20.8122C18.7416 20.8367 18.7436 20.8631 18.7436 20.8875C18.0332 21.1256 18.0635 21.7807 18.8102 21.9211C18.8122 21.9476 18.8122 21.974 18.8143 21.9984C18.1018 22.2222 18.124 22.8632 18.8546 23.028C18.8546 23.0544 18.8546 23.0809 18.8566 23.1073C18.1482 23.3087 18.1422 23.9435 18.8647 24.1348C18.8647 24.1612 18.8647 24.1897 18.8647 24.2162C18.1543 24.3912 18.122 25.0199 18.8344 25.2416C18.8324 25.2681 18.8324 25.2966 18.8304 25.323C18.1079 25.4715 18.0635 26.0982 18.7618 26.3444C18.7598 26.3709 18.7577 26.3993 18.7557 26.4258C18.013 26.5479 17.9686 27.1745 18.6467 27.4451C18.6427 27.4716 18.6407 27.498 18.6366 27.5245C17.9101 27.6079 17.793 28.2285 18.4853 28.5377C18.4812 28.5642 18.4772 28.5906 18.4711 28.615C17.7204 28.6659 17.6073 29.2885 18.2734 29.6222C18.2673 29.6466 18.2613 29.6731 18.2572 29.6975C17.5185 29.7117 17.347 30.3221 18.013 30.6944C18.007 30.7189 17.9989 30.7433 17.9928 30.7697C17.2299 30.7494 17.0725 31.3598 17.7002 31.7545C17.6921 31.7789 17.684 31.8033 17.676 31.8277C16.9191 31.7687 16.7254 32.373 17.3349 32.7962C17.3268 32.8206 17.3167 32.843 17.3086 32.8674C16.5861 32.7759 16.3076 33.3456 16.9211 33.8176C16.911 33.842 16.9009 33.8644 16.8909 33.8888C16.1481 33.7606 15.8858 34.3283 16.461 34.8186C16.4489 34.841 16.4388 34.8654 16.4267 34.8878C15.6759 34.7149 15.4155 35.2927 15.9503 35.7952C15.9382 35.8176 15.9261 35.84 15.914 35.8624C15.1834 35.6549 14.8746 36.2103 15.3913 36.7454C15.3772 36.7658 15.3651 36.7881 15.3509 36.8085C14.6506 36.5725 14.2873 37.0872 14.7818 37.659C14.7656 37.6813 14.7515 37.7037 14.7354 37.7241C14.0734 37.4718 13.6616 37.9357 14.1279 38.542C14.1097 38.5644 14.0936 38.5868 14.0754 38.6091C13.4134 38.3263 13.0077 38.7943 13.4477 39.4108C13.4316 39.4311 13.4154 39.4515 13.3993 39.4739C12.711 39.1341 12.2953 39.6977 12.7474 40.2958C12.7332 40.3142 12.7171 40.3345 12.703 40.3528C11.9925 40.0212 11.5808 40.601 12.0612 41.189C12.047 41.2094 12.0309 41.2297 12.0168 41.2501C11.2942 40.953 10.9168 41.5451 11.4093 42.1087C11.3951 42.1311 11.379 42.1535 11.3649 42.1758C10.6403 41.9174 10.2851 42.5177 10.7998 43.0609C10.7856 43.0833 10.7715 43.1077 10.7574 43.1301C10.0167 42.9022 9.69577 43.5187 10.2286 44.0375C10.2165 44.0619 10.2024 44.0843 10.1902 44.1087C9.44752 43.9134 9.14075 44.538 9.70182 45.0386C9.68971 45.063 9.6776 45.0854 9.66549 45.1098C8.91874 44.947 8.62811 45.5798 9.21543 46.0599C9.20534 46.0844 9.19323 46.1088 9.18313 46.1332C8.4384 46.003 8.15584 46.6418 8.77141 47.1017C8.76132 47.1261 8.75122 47.1505 8.74315 47.1749C8.00043 47.0752 7.72998 47.7222 8.37179 48.1597C8.36372 48.1841 8.35363 48.2085 8.34556 48.2329C7.60082 48.1658 7.35258 48.823 8.01658 49.234C8.00851 49.2584 8.00043 49.2828 7.99438 49.3092C7.24964 49.2726 7.02561 49.94 7.70375 50.3225C7.69769 50.3469 7.69164 50.3733 7.68356 50.3978C6.92672 50.3917 6.75315 51.0773 7.43532 51.4232C7.42927 51.4476 7.42321 51.4741 7.41917 51.4985C6.66435 51.5249 6.52307 52.2188 7.21331 52.5341C7.20928 52.5585 7.20322 52.585 7.19918 52.6094C6.44637 52.6664 6.33739 53.3643 7.03571 53.6511C7.03167 53.6776 7.02965 53.702 7.02562 53.7285C6.27886 53.8159 6.19813 54.5179 6.90452 54.7763C6.89847 54.8434 6.89847 54.8556 6.89847 54.8556C6.15373 54.9736 6.10529 55.6776 6.82379 55.9055C6.82177 55.932 6.82177 55.9584 6.81975 55.9849C6.06089 56.1395 6.073 56.8394 6.78544 57.0368C6.78544 57.0632 6.78342 57.0897 6.78342 57.1181C6.03465 57.3074 6.06896 58.0052 6.79755 58.17C6.79755 58.1965 6.79957 58.2229 6.79957 58.2494C6.04878 58.4651 6.11942 59.167 6.85406 59.3013C6.85608 59.3277 6.85608 59.3522 6.8581 59.3786C6.11942 59.6228 6.21024 60.3308 6.95901 60.4305C6.96103 60.4549 6.96507 60.4793 6.96709 60.5038C6.24455 60.7703 6.33941 61.4865 7.10837 61.5536C7.1124 61.578 7.11442 61.6004 7.11846 61.6248C6.40197 61.9239 6.53316 62.6381 7.30414 62.6686C7.30817 62.691 7.31422 62.7134 7.31826 62.7378C6.61994 63.0613 6.75114 63.7754 7.54431 63.7754C7.55037 63.7978 7.5544 63.8202 7.56045 63.8426C6.87021 64.1966 7.03772 64.9067 7.8309 64.8701C7.83695 64.8925 7.84301 64.9128 7.84906 64.9352C7.16487 65.3218 7.37074 66.0196 8.15988 65.9525C8.16593 65.9749 8.17401 65.9952 8.18006 66.0176C7.50193 66.4388 7.75824 67.1204 8.53325 67.0207C8.54133 67.041 8.5494 67.0634 8.55747 67.0837C7.88943 67.5354 8.18813 68.2048 8.94902 68.0726C8.95709 68.0929 8.96516 68.1133 8.97525 68.1336C8.3395 68.6016 8.64224 69.271 9.40716 69.1041C9.41725 69.1245 9.42734 69.1448 9.43542 69.1652C8.82388 69.6596 9.15084 70.3147 9.90567 70.1174C9.91576 70.1377 9.92585 70.1581 9.93594 70.1784C9.35872 70.6891 9.68366 71.3361 10.4445 71.1082C10.4567 71.1286 10.4688 71.1489 10.4809 71.1693C9.92585 71.7064 10.2831 72.331 11.0258 72.0747C11.0379 72.095 11.052 72.1154 11.0641 72.1357C10.5293 72.7034 10.9269 73.2934 11.6454 73.0167C11.6595 73.0371 11.6737 73.0574 11.6878 73.0778C11.1731 73.6719 11.6091 74.2334 12.3034 73.9323C12.3175 73.9526 12.3336 73.973 12.3478 73.9933C11.8694 74.5956 12.3114 75.151 12.9976 74.8214C13.0138 74.8418 13.0299 74.8601 13.0461 74.8804C12.6041 75.4929 13.0542 76.0402 13.7303 75.678C13.7484 75.6963 13.7646 75.7167 13.7827 75.737C13.373 76.3637 13.8271 76.8947 14.4972 76.5061C14.5154 76.5244 14.5355 76.5427 14.5537 76.5631C14.1662 77.2142 14.6546 77.7086 15.3005 77.2996C15.3207 77.3179 15.3388 77.3362 15.359 77.3545C14.9937 78.0321 15.5205 78.4878 16.136 78.0565C16.1562 78.0728 16.1764 78.0911 16.1946 78.1074C15.8515 78.8073 16.4085 79.2305 17.0019 78.7767C17.022 78.793 17.0422 78.8093 17.0624 78.8235C16.7476 79.5255 17.3147 79.9507 17.898 79.4604C17.9181 79.4746 17.9383 79.4889 17.9585 79.5031C17.6739 80.2173 18.2552 80.6283 18.8223 80.1033C18.8425 80.1176 18.8627 80.1298 18.8829 80.144C18.6266 80.8683 19.2179 81.2692 19.7709 80.7076C19.7911 80.7198 19.8113 80.732 19.8315 80.7442C19.5994 81.4889 20.2149 81.8551 20.7437 81.2732C20.7639 81.2854 20.7841 81.2956 20.8043 81.3058C20.5944 82.0789 21.2422 82.3963 21.7387 81.7961C21.7589 81.8063 21.7791 81.8165 21.7993 81.8267C21.6156 82.6141 22.2877 82.9009 22.7559 82.2783C22.7761 82.2865 22.7963 82.2967 22.8144 82.3048C22.661 83.0841 23.3392 83.3689 23.7893 82.7178C23.8094 82.726 23.8296 82.7341 23.8498 82.7422C23.7287 83.5459 24.421 83.7799 24.8387 83.1146C24.8589 83.1227 24.8811 83.1288 24.9013 83.137C24.8166 83.9366 25.5088 84.1604 25.9064 83.4686C25.9266 83.4747 25.9488 83.4808 25.969 83.4889C25.9185 84.2743 26.6128 84.5002 26.9862 83.7779C27.0064 83.784 27.0286 83.7901 27.0487 83.7941C27.0306 84.5856 27.741 84.7647 28.076 84.0424C28.0982 84.0464 28.1184 84.0505 28.1406 84.0566C28.1547 84.846 28.8712 84.9905 29.178 84.2621C29.2002 84.2662 29.2204 84.2702 29.2426 84.2743C29.287 85.0576 30.0075 85.1716 30.286 84.4371C30.3082 84.4412 30.3304 84.4432 30.3526 84.4473C30.4354 85.2448 31.1519 85.2957 31.3981 84.5653C31.4223 84.5673 31.4445 84.5693 31.4687 84.5714C31.5878 85.3608 32.2962 85.3872 32.5162 84.6487C32.5404 84.6507 32.5646 84.6507 32.5889 84.6528C32.7382 85.4096 33.4406 85.4483 33.6363 84.6853C33.6606 84.6853 33.6868 84.6853 33.711 84.6873C33.8886 85.4218 34.593 85.4503 34.7585 84.6751C34.7827 84.6751 34.8089 84.6731 34.8332 84.6731C35.0451 85.4076 35.7494 85.373 35.8786 84.6182C35.9028 84.6161 35.9291 84.6141 35.9533 84.6121C36.1935 85.3344 36.8938 85.2692 36.9947 84.5144C37.0209 84.5124 37.0452 84.5083 37.0714 84.5063C37.3439 85.2265 38.0341 85.1105 38.1068 84.3638C38.133 84.3598 38.1592 84.3557 38.1855 84.3516C38.4943 85.0658 39.1684 84.9132 39.2128 84.1665C39.239 84.1604 39.2652 84.1563 39.2915 84.1502C39.6245 84.8359 40.2966 84.6853 40.3087 83.9223C40.3349 83.9162 40.3612 83.9081 40.3874 83.902C40.7406 84.5571 41.4187 84.4106 41.3945 83.6273C41.4207 83.6192 41.445 83.6131 41.4712 83.6049C41.8587 84.2601 42.5267 84.0464 42.4682 83.2896C42.4924 83.2814 42.5167 83.2712 42.5409 83.2631C42.9526 83.902 43.6146 83.6599 43.5258 82.903C43.548 82.8948 43.5722 82.8847 43.5964 82.8765C44.0364 83.5093 44.6903 83.2326 44.5672 82.4777C44.5894 82.4676 44.6116 82.4574 44.6338 82.4472C45.1 83.0617 45.7479 82.7585 45.5864 82.0037C45.6086 81.9935 45.6308 81.9833 45.651 81.9711C46.1354 82.5591 46.7812 82.258 46.5875 81.4909C46.6097 81.4787 46.6299 81.4665 46.6521 81.4564C47.1627 82.026 47.7944 81.6944 47.5663 80.9335C47.5865 80.9212 47.6067 80.909 47.6289 80.8968C48.1658 81.4523 48.7793 81.0881 48.523 80.3414C48.5432 80.3292 48.5634 80.3149 48.5835 80.3007C49.1507 80.8399 49.74 80.4329 49.4534 79.7045C49.4736 79.6903 49.4918 79.6781 49.5119 79.6638C50.1073 80.1867 50.6684 79.7432 50.3596 79.0351C50.3778 79.0209 50.398 79.0067 50.4161 78.9904C51.0337 79.4889 51.5746 79.0148 51.2355 78.3251C51.2537 78.3108 51.2719 78.2945 51.29 78.2803C51.9157 78.7483 52.4546 78.2681 52.0832 77.5844C52.1014 77.5682 52.1175 77.5519 52.1357 77.5377C52.7755 77.971 53.2982 77.4746 52.8986 76.8072C52.9147 76.791 52.9329 76.7747 52.949 76.7564C53.605 77.1613 54.1075 76.6506 53.6837 75.9995C53.6998 75.9812 53.718 75.9629 53.7341 75.9445C54.3941 76.3108 54.8886 75.8021 54.4324 75.1551C54.4486 75.1368 54.4647 75.1164 54.4809 75.0981C55.159 75.4379 55.6212 74.9048 55.1489 74.2843C55.1651 74.2639 55.1812 74.2436 55.1974 74.2233C55.8977 74.5345 56.3175 73.973 55.8271 73.3809C55.8412 73.3606 55.8573 73.3382 55.8715 73.3178C56.59 73.6027 56.9714 73.0147 56.4689 72.4531C56.483 72.4307 56.4991 72.4104 56.5133 72.388C57.2459 72.6423 57.591 72.032 57.0703 71.4968C57.0844 71.4745 57.0965 71.4521 57.1107 71.4297C57.8352 71.6494 58.1844 71.0391 57.6334 70.5162C57.6455 70.4938 57.6596 70.4714 57.6717 70.447C58.4064 70.6342 58.7233 70.0055 58.1521 69.5111C58.1642 69.4887 58.1743 69.4643 58.1864 69.4419C58.9291 69.6006 59.2258 68.9576 58.6304 68.4856C58.6405 68.4612 58.6526 68.4388 58.6627 68.4144C59.4014 68.5385 59.692 67.8956 59.0643 67.4398C59.0744 67.4154 59.0825 67.391 59.0906 67.3686C59.8394 67.4642 60.1037 66.807 59.4518 66.3777C59.4599 66.3533 59.468 66.3309 59.4761 66.3065C60.2329 66.3737 60.467 65.7043 59.799 65.3014C59.8071 65.277 59.8131 65.2526 59.8192 65.2302C60.5922 65.2668 60.7778 64.5791 60.0957 64.2088C60.1017 64.1844 60.1078 64.162 60.1138 64.1376C60.8989 64.1457 61.0463 63.4438 60.352 63.106C60.356 63.0816 60.3621 63.0593 60.3681 63.0348C61.1593 63.0104 61.2683 62.2983 60.5619 61.9931C60.5659 61.9707 60.57 61.9463 60.572 61.9239C61.3692 61.869 61.4398 61.1467 60.7233 60.8741C60.7254 60.8517 60.7294 60.8293 60.7314 60.8049C61.5206 60.7174 61.571 59.9931 60.8424 59.7489C60.8444 59.7265 60.8465 59.7021 60.8465 59.6797C61.6235 59.5638 61.6598 58.8333 60.9131 58.6197C60.9131 58.5973 60.9151 58.5749 60.9151 58.5526C61.6881 58.3918 61.6982 57.6594 60.9433 57.4762Z" fill="#5B7BBB"/>
<path d="M67.497 63.0821C67.3457 62.9661 67.1317 62.9031 66.8916 62.9051C67.713 62.9051 67.9996 62.1381 67.4022 61.843C67.2306 61.7576 67.0086 61.7372 66.7745 61.784C67.6121 61.6152 67.6948 60.8074 67.0773 60.6426C66.8916 60.5917 66.6696 60.6141 66.4496 60.7057C67.0248 60.4676 67.158 59.9671 66.9017 59.6802C66.7261 59.4991 66.3366 59.4381 65.9269 59.7067C66.6373 59.2367 66.4294 58.4574 65.7876 58.5327C65.5979 58.5551 65.3981 58.6588 65.2285 58.8257C65.3981 58.6588 65.5111 58.4595 65.5394 58.2662C65.6322 57.6131 64.8552 57.4055 64.3768 58.0932C64.8693 57.3831 64.3768 56.7443 63.8158 57.0556C63.6462 57.1492 63.5009 57.318 63.404 57.5378C63.8864 56.4452 62.6129 56.0199 62.3445 57.1776C62.5665 56.2112 61.6764 55.9162 61.3515 56.551C61.6441 56.8297 61.5109 57.2753 60.9438 57.4096C60.9438 57.432 60.9438 57.4544 60.9438 57.4788C61.6986 57.6619 61.6885 58.3943 60.9175 58.5429C60.9175 58.5653 60.9155 58.5876 60.9155 58.61C61.6643 58.8237 61.626 59.5541 60.8489 59.6701C60.8469 59.6924 60.8449 59.7168 60.8429 59.7392C61.5715 59.9834 61.521 60.7097 60.7319 60.7952C60.7299 60.8176 60.7258 60.84 60.7238 60.8644C61.4403 61.137 61.3676 61.8593 60.5724 61.9142C60.5684 61.9366 60.5643 61.961 60.5623 61.9834C61.2687 62.2886 61.1597 63.0028 60.3686 63.0251C60.3645 63.0496 60.3585 63.0719 60.3524 63.0964C61.0467 63.4341 60.8994 64.1361 60.1143 64.1279C60.1082 64.1523 60.1022 64.1747 60.0961 64.1991C60.7783 64.5674 60.5926 65.2551 59.8196 65.2205C59.8115 65.2449 59.8055 65.2693 59.7994 65.2917C60.4675 65.6946 60.2334 66.364 59.4765 66.2968C59.4684 66.3212 59.4604 66.3436 59.4523 66.368C60.1042 66.7973 59.8398 67.4545 59.091 67.3589C59.0809 67.3833 59.0729 67.4077 59.0648 67.4301C59.6925 67.8859 59.4018 68.5288 58.6632 68.4047C58.6531 68.4291 58.641 68.4515 58.6309 68.4759C58.8165 68.6224 58.9154 68.7852 58.9417 68.9357C59.0143 68.8421 59.0789 68.7262 59.1294 68.5776C58.754 69.7089 60.0578 70.0141 60.2192 68.834C60.0658 70.0141 61.3979 70.0711 61.3373 68.8788C61.406 70.067 62.7299 69.8696 62.4433 68.7099C62.738 69.8879 63.9914 69.4017 63.4969 68.3315C63.9974 69.4078 65.1579 68.7282 64.4596 67.7597C65.1518 68.7201 66.163 67.833 65.2992 67.013C66.159 67.8248 66.9864 66.7607 65.9834 66.1218C66.9824 66.7587 67.5919 65.5501 66.4879 65.1147C67.273 65.424 67.7897 64.8034 67.3578 64.3192C67.2347 64.1767 67.0268 64.073 66.7927 64.0303C67.6161 64.1808 68.0178 63.4768 67.497 63.0821Z" fill="#D55849"/>
<path d="M61.07 56.3848C61.034 56.3363 60.9939 56.296 60.9519 56.2637C60.9419 56.2677 60.9319 56.2717 60.9219 56.2738C60.9219 56.298 60.9239 56.3202 60.9239 56.3444C60.9759 56.3545 61.024 56.3686 61.07 56.3848Z" fill="#D55849"/>
<path d="M42.3967 20.1916C42.3927 20.1672 42.3927 20.1448 42.3887 20.1204C42.8993 19.8986 42.7863 19.3371 42.2212 19.335C42.2151 19.3147 42.2111 19.2943 42.205 19.274C42.7035 18.9769 42.5057 18.4235 41.9305 18.5131C41.9225 18.4968 41.9164 18.4785 41.9083 18.4601C42.3745 18.098 42.1001 17.5568 41.5309 17.7399C41.5208 17.7236 41.5127 17.7073 41.5027 17.6931C41.9245 17.2618 41.5713 16.7734 41.0344 17.0298C41.0223 17.0156 41.0102 17.0013 41.0001 16.9871C41.3513 16.5049 40.9375 16.0756 40.4511 16.395C40.437 16.3808 40.4209 16.3665 40.4067 16.3543C40.6671 15.8457 40.2271 15.4794 39.7871 15.8436C39.769 15.8314 39.7508 15.8192 39.7326 15.805C39.9022 15.278 39.44 14.9891 39.0565 15.3879C38.9919 15.3533 39.0464 15.3838 38.9879 15.3553C39.0727 14.8426 38.5782 14.5883 38.2533 15.0542C38.227 15.046 38.2028 15.0379 38.1766 15.0298C38.1766 14.4906 37.6841 14.3705 37.4278 14.8243C37.4016 14.8182 37.3733 14.8121 37.3471 14.806C37.2966 14.3054 36.8304 14.1793 36.5943 14.6717C36.566 14.6676 36.5377 14.6635 36.5115 14.6595C36.4267 14.1366 35.9504 14.0857 35.7506 14.5781C35.7244 14.576 35.6981 14.574 35.6739 14.572C35.5649 14.0348 35.0785 14.0287 34.907 14.5252C34.8828 14.5231 34.8586 14.5231 34.8343 14.5211C34.7072 13.9941 34.2167 13.9921 34.0674 14.5008C34.0432 14.5008 34.0169 14.5008 33.9927 14.5008C33.8454 13.9982 33.361 13.9901 33.2278 14.5109C33.2016 14.5109 33.1753 14.513 33.1471 14.515C32.9755 14.0287 32.5012 14.0348 32.3862 14.5618C32.3579 14.5638 32.3317 14.5659 32.3034 14.5679C32.1016 14.0796 31.6293 14.1406 31.5466 14.6574C31.5183 14.6615 31.4921 14.6656 31.4638 14.6696C31.2277 14.1732 30.7534 14.3034 30.709 14.81C30.6848 14.8161 30.6586 14.8202 30.6343 14.8263C30.38 14.3644 29.8755 14.4784 29.8795 15.0298C29.8553 15.0379 29.8311 15.046 29.8069 15.0542C29.4819 14.5842 28.9794 14.8324 29.0702 15.3553C29.048 15.3655 29.0278 15.3757 29.0056 15.3879C28.6262 14.987 28.16 15.2658 28.3234 15.7907C28.3033 15.805 28.2831 15.8172 28.2629 15.8314C27.831 15.4815 27.4011 15.8355 27.6413 16.3319C27.6251 16.3482 27.607 16.3624 27.5908 16.3787C27.1145 16.0817 26.723 16.4967 27.0439 16.9647C27.0297 16.981 27.0176 16.9993 27.0035 17.0156C26.4828 16.7816 26.1498 17.2536 26.5393 17.6748C26.5272 17.6931 26.5171 17.7114 26.507 17.7297C25.9621 17.569 25.6916 18.0858 26.1377 18.4479C26.1296 18.4683 26.1195 18.4866 26.1114 18.5069C25.5524 18.4317 25.3606 18.9708 25.845 19.2659C25.839 19.2882 25.8329 19.3086 25.8269 19.331C25.2718 19.3391 25.1588 19.8946 25.6674 20.1184C25.6634 20.1428 25.6614 20.1652 25.6593 20.1896C25.1205 20.2791 25.0821 20.8346 25.6129 20.9892C25.6129 21.0136 25.6129 21.038 25.6149 21.0624C25.0902 21.2313 25.1427 21.7847 25.6836 21.858C25.6876 21.8824 25.6896 21.9068 25.6957 21.9312C25.2012 22.1733 25.3304 22.7146 25.8773 22.7105C25.8854 22.7349 25.8935 22.7593 25.8995 22.7817C25.4515 23.0889 25.6492 23.6179 26.1942 23.5264C26.2063 23.5508 26.2164 23.5732 26.2285 23.5955C25.8269 23.9842 26.1356 24.4603 26.6422 24.2833C26.6584 24.3056 26.6725 24.326 26.6887 24.3484C26.3677 24.796 26.7512 25.2233 27.2255 24.9486C27.2437 24.9669 27.2639 24.9832 27.282 24.9994C27.062 25.4654 27.4778 25.8581 27.9137 25.4898C27.9359 25.5061 27.9602 25.5203 27.9844 25.5345C27.8572 26.033 28.273 26.3036 28.6484 25.9272C28.6766 25.9415 28.7029 25.9578 28.7311 25.972C28.6625 26.4766 29.0904 26.6719 29.4214 26.2894C29.4496 26.3016 29.4799 26.3118 29.5082 26.324C29.4779 26.8306 29.9199 26.9934 30.2226 26.5824C30.2509 26.5905 30.2791 26.6007 30.3074 26.6109C30.3074 27.1399 30.7736 27.2538 31.044 26.8184C31.0703 26.8245 31.0965 26.8306 31.1228 26.8367C31.149 27.3718 31.6334 27.4735 31.8776 26.9974C31.9018 27.0015 31.926 27.0076 31.9502 27.0117C32.0047 27.5468 32.5053 27.6323 32.7172 27.1256C32.7414 27.1277 32.7656 27.1297 32.7919 27.1338C32.8887 27.6852 33.4074 27.6953 33.5689 27.1907C33.5931 27.1907 33.6173 27.1907 33.6415 27.1928C33.7788 27.7157 34.2793 27.7157 34.4166 27.1907C34.4408 27.1907 34.463 27.1887 34.4872 27.1867C34.6487 27.6974 35.1714 27.6831 35.2662 27.1277C35.2905 27.1256 35.3127 27.1216 35.3369 27.1195C35.5488 27.6363 36.0574 27.5448 36.1079 27.0056C36.1301 27.0015 36.1543 26.9974 36.1765 26.9934C36.4227 27.4797 36.9172 27.3739 36.9353 26.8245C36.9596 26.8184 36.9818 26.8123 37.006 26.8062C37.2784 27.266 37.7669 27.1378 37.7487 26.5865C37.7729 26.5783 37.7951 26.5722 37.8193 26.5641C38.1281 27.0117 38.6004 26.8326 38.5459 26.2935C38.5479 26.2935 38.554 26.2914 38.6125 26.265C38.9536 26.6963 39.4138 26.4725 39.3209 25.9435C39.3431 25.9333 39.3633 25.9211 39.3855 25.9089C39.767 26.324 40.217 26.0391 40.0677 25.5142C40.0858 25.502 40.106 25.4898 40.1242 25.4776C40.5642 25.8743 41.0122 25.4735 40.766 24.9832C40.7821 24.9689 40.7983 24.9547 40.8144 24.9404C41.2988 25.2416 41.7004 24.798 41.3654 24.3443C41.3795 24.326 41.3937 24.3056 41.4078 24.2853C41.9124 24.4704 42.2393 23.9923 41.8316 23.5996C41.8437 23.5772 41.8538 23.5528 41.8659 23.5304C42.4048 23.622 42.6127 23.1011 42.1687 22.7898C42.1768 22.7654 42.1828 22.739 42.1909 22.7125C42.7298 22.7146 42.8569 22.1856 42.3766 21.9394C42.3806 21.9129 42.3846 21.8844 42.3887 21.858C42.9154 21.7807 42.9679 21.2374 42.4553 21.0665C42.4553 21.0401 42.4573 21.0136 42.4573 20.9872C42.974 20.8305 42.9336 20.2811 42.3967 20.1916Z" fill="white"/>
<path d="M26.1398 15.8115C26.8835 15.6587 27.3635 14.927 27.212 14.1772C27.0604 13.4275 26.3346 12.9435 25.5908 13.0963C24.8471 13.2492 24.367 13.9809 24.5186 14.7306C24.6702 15.4804 25.396 15.9643 26.1398 15.8115Z" fill="white"/>
<path d="M42.6676 13.335C41.935 13.337 41.3456 13.9372 41.3477 14.6758C41.3497 15.4144 41.9451 16.0085 42.6777 16.0064C43.4103 16.0044 43.9996 15.4042 43.9976 14.6656C43.9936 13.9291 43.3982 13.3329 42.6676 13.335Z" fill="white"/>
<path d="M9.42871 69.1534C9.41862 69.1331 9.40853 69.1127 9.40046 69.0924C8.63554 69.2592 8.3328 68.5898 8.96855 68.1219C8.96048 68.1015 8.9524 68.0812 8.94231 68.0608C8.18143 68.1931 7.88273 67.5237 8.55077 67.072C8.5427 67.0517 8.53463 67.0293 8.52655 67.0089C7.75356 67.1086 7.49522 66.427 8.17336 66.0059C8.16529 65.9835 8.15923 65.9631 8.15318 65.9408C7.36404 66.0099 7.15817 65.31 7.84236 64.9234C7.83631 64.9011 7.83025 64.8807 7.8242 64.8583C7.03102 64.895 6.86351 64.1869 7.55375 63.8308C7.5477 63.8085 7.54366 63.7861 7.53761 63.7637C6.74443 63.7657 6.61324 63.0495 7.31156 62.726C7.30752 62.7037 7.30147 62.6813 7.29744 62.6569C6.52444 62.6263 6.39527 61.9122 7.11175 61.6131C7.10772 61.5887 7.1057 61.5663 7.10167 61.5419C6.33271 61.4747 6.23987 60.7586 6.96038 60.492C6.95837 60.4676 6.95433 60.4432 6.95231 60.4188C6.20556 60.317 6.11272 59.611 6.8514 59.3669C6.84938 59.3404 6.84938 59.316 6.84736 59.2896C6.11272 59.1553 6.0441 58.4533 6.79287 58.2377C6.79287 58.2112 6.79085 58.1848 6.79085 58.1583C6.06226 57.9935 6.02795 57.2936 6.77672 57.1064C6.77672 57.0942 6.77672 57.082 6.77672 57.0718C6.41949 56.8745 5.98759 57.1451 6.03401 57.7249C6.00979 57.7331 5.98355 57.7412 5.95933 57.7514C5.50926 57.0942 4.75443 57.4645 4.96231 58.2173C4.94011 58.2315 4.91589 58.2438 4.89369 58.258C4.32858 57.7046 3.66458 58.2071 4.00364 58.903C3.98346 58.9213 3.96126 58.9396 3.94108 58.9579C3.28111 58.5245 2.73214 59.1492 3.1923 59.7636C3.17615 59.786 3.15799 59.8084 3.14184 59.8308C2.40922 59.5296 1.98942 60.256 2.56059 60.7687C2.54848 60.7931 2.53637 60.8176 2.52426 60.8399C1.74521 60.6792 1.46064 61.4768 2.12868 61.8735C2.12061 61.8979 2.11455 61.9244 2.1085 61.9488C1.31936 61.9366 1.16598 62.7749 1.91071 63.0394C1.90869 63.0658 1.90668 63.0902 1.90466 63.1167C1.13772 63.253 1.12763 64.0974 1.90869 64.2256C1.91071 64.252 1.91475 64.2785 1.91677 64.3049C1.19019 64.5796 1.3456 65.4097 2.12666 65.3914C2.13473 65.4179 2.14281 65.4443 2.15089 65.4708C1.50303 65.8777 1.79769 66.659 2.5626 66.4942C2.57471 66.5186 2.58884 66.543 2.60297 66.5695C2.04997 67.0903 2.47986 67.8045 3.20441 67.4932C3.22258 67.5156 3.23872 67.5359 3.25689 67.5583C2.80681 68.1809 3.36991 68.7953 4.02383 68.3477C4.04401 68.366 4.06621 68.3823 4.08639 68.3986C3.75136 69.1066 4.43555 69.595 4.98855 69.0293C5.01075 69.0415 5.03295 69.0537 5.05717 69.068C4.85535 69.831 5.62228 70.187 6.06226 69.5197C6.08648 69.5278 6.1107 69.5359 6.13492 69.5441C6.08043 70.3295 6.8958 70.539 7.20459 69.8005C7.23083 69.8045 7.25707 69.8086 7.28331 69.8106C7.38422 70.5919 8.21372 70.6285 8.37922 69.8595C8.40747 69.8574 8.43371 69.8554 8.46197 69.8554C8.65572 70.4353 9.18854 70.4821 9.42669 70.1117C9.03919 69.9876 8.96855 69.5237 9.42871 69.1534Z" fill="white"/>
<path d="M34.0272 19.1252C35.4629 19.1252 36.6268 18.3819 36.6268 17.4649C36.6268 16.548 35.4629 15.8047 34.0272 15.8047C32.5916 15.8047 31.4277 16.548 31.4277 17.4649C31.4277 18.3819 32.5916 19.1252 34.0272 19.1252Z" fill="#081110"/>
<path d="M35.9985 21.3315C35.1751 22.0559 33.0458 22.0497 32.1295 21.3987C31.853 21.2013 31.5886 21.6611 31.8651 21.8565C32.9328 22.6154 35.3244 22.6276 36.3719 21.7079C36.6242 21.4821 36.2528 21.1077 35.9985 21.3315Z" fill="#081110"/>
<path d="M25.8693 15.0074C26.1736 15.0074 26.4203 14.7587 26.4203 14.4519C26.4203 14.1452 26.1736 13.8965 25.8693 13.8965C25.565 13.8965 25.3184 14.1452 25.3184 14.4519C25.3184 14.7587 25.565 15.0074 25.8693 15.0074Z" fill="#081110"/>
<path d="M42.6721 14.1162C42.3673 14.1162 42.1211 14.3644 42.1211 14.6717C42.1211 14.9789 42.3673 15.2271 42.6721 15.2271C42.9768 15.2271 43.2231 14.9789 43.2231 14.6717C43.2231 14.3644 42.9768 14.1162 42.6721 14.1162Z" fill="#081110"/>
<path d="M34.6627 51.0264C34.7515 52.0641 34.2308 53.5107 32.4043 55.2259C30.5797 56.939 28.0004 58.6725 28.3294 60.9249C28.622 62.931 30.9915 64.0602 30.9915 64.0602L32.5314 62.7459C32.5314 62.7459 30.5131 61.2463 32.1439 59.3541C34.923 56.1191 37.3167 55.2259 37.0382 52.5259C36.7596 49.824 33.6636 48.7334 33.6636 48.7334C33.6636 48.7334 34.5436 49.6632 34.6627 51.0264Z" fill="white"/>
<path d="M31.4879 50.6926C31.2497 52.3203 28.1921 53.5798 27.3141 55.3926C26.4362 57.2055 27.7743 59.1302 27.7743 59.1302C27.7743 59.1302 27.6088 58.2004 29.2133 56.7436C31.4475 54.709 33.8513 53.065 33.7261 51.303C33.5465 48.8065 30.8723 47.9561 30.8723 47.9561C30.8723 47.9561 31.726 49.0649 31.4879 50.6926Z" fill="white"/>
<path d="M37.8685 53.132C37.8685 53.1503 37.8685 53.1707 37.8665 53.189C37.8241 54.6763 36.9825 55.6306 36.159 56.4912C34.1832 58.5645 32.6836 59.3804 32.6836 61.1261C32.6836 62.764 35.4385 64.06 35.4385 64.06L36.8392 62.7721C36.8392 62.7721 35.8825 62.1902 35.8846 61.1912C35.8846 60.6317 36.1853 59.9399 37.1177 59.1464C39.1985 57.3803 40.0745 56.1575 40.0745 54.774C40.0745 54.5644 40.0543 54.3508 40.0139 54.131C39.6325 52.0232 37.2368 51.0791 37.2368 51.0791C37.2368 51.0791 37.8665 52.2124 37.8685 53.132Z" fill="white"/>
<path d="M30.8906 67.5768C30.9532 67.5686 31.0178 67.5666 31.0824 67.5666C32.0047 67.5666 32.7696 68.2502 32.9028 69.1434C33.0259 69.1841 33.1531 69.2106 33.2843 69.2248C33.1854 68.0875 32.2368 67.1963 31.0824 67.1963C31.0198 67.1963 30.9552 67.1983 30.8926 67.2044C30.8967 67.2634 30.8987 67.3224 30.8987 67.3835C30.8987 67.4466 30.8967 67.5117 30.8906 67.5768Z" fill="white"/>
<path d="M32.9215 69.5332C32.863 70.5057 32.0638 71.2748 31.0849 71.2748C30.0697 71.2748 29.2443 70.4447 29.2443 69.4192C29.2443 68.5972 29.7751 67.8973 30.5138 67.6573C30.5279 67.5677 30.5339 67.4741 30.5339 67.3805C30.5339 67.3419 30.5319 67.3032 30.5299 67.2666C29.5793 67.5148 28.877 68.3856 28.877 69.4213C28.877 70.6522 29.8639 71.6472 31.0849 71.6472C32.2454 71.6472 33.198 70.7458 33.2868 69.5983C33.1617 69.5861 33.0386 69.5657 32.9215 69.5332Z" fill="white"/>
<path d="M28.876 69.4199C28.876 69.3548 28.878 69.2897 28.8841 69.2245C28.8215 69.2306 28.7569 69.2327 28.6903 69.2327C27.6752 69.2327 26.8497 68.4025 26.8497 67.3791C26.8497 66.3537 27.6731 65.5235 28.6903 65.5235C29.7075 65.5235 30.533 66.3537 30.533 67.3791C30.533 68.2011 30.0002 68.899 29.2655 69.1432C29.2514 69.2327 29.2454 69.3263 29.2454 69.4199C29.2454 69.4585 29.2474 69.4972 29.2494 69.5358C30.202 69.2876 30.9023 68.4168 30.9023 67.3812C30.9023 66.1502 29.9134 65.1553 28.6923 65.1553C27.4733 65.1553 26.4844 66.1522 26.4844 67.3812C26.4844 68.6101 27.4733 69.6071 28.6923 69.6071C28.7569 69.6071 28.8215 69.605 28.8841 69.5989H28.8861C28.878 69.5399 28.876 69.4809 28.876 69.4199Z" fill="white"/>
<path d="M31.6387 67.2653C31.6953 66.2947 32.4965 65.5236 33.4754 65.5236C34.4926 65.5236 35.316 66.3537 35.316 67.3792C35.316 68.2012 34.7832 68.8991 34.0485 69.1432C34.0344 69.2327 34.0284 69.3263 34.0284 69.4199C34.0284 69.4586 34.0304 69.4972 34.0324 69.5339C34.983 69.2836 35.6853 68.4128 35.6853 67.3792C35.6853 66.1482 34.6944 65.1533 33.4754 65.1533C32.3149 65.1533 31.3622 66.0547 31.2734 67.2022C31.3986 67.2144 31.5217 67.2347 31.6387 67.2653Z" fill="white"/>
<path d="M33.661 69.4196C33.661 69.3545 33.663 69.2894 33.669 69.2243C33.6045 69.2304 33.5419 69.2324 33.4753 69.2324C32.5529 69.2324 31.788 68.5488 31.6568 67.6556C31.5357 67.6149 31.4066 67.5885 31.2754 67.5742C31.3743 68.7136 32.3208 69.6048 33.4753 69.6048C33.5399 69.6048 33.6024 69.6027 33.667 69.5966C33.663 69.5397 33.661 69.4807 33.661 69.4196Z" fill="white"/>
<path d="M38.2604 65.1533C37.0999 65.1533 36.1494 66.0567 36.0605 67.2022C36.1857 67.2124 36.3068 67.2347 36.4259 67.2653C36.4844 66.2947 37.2836 65.5236 38.2625 65.5236C39.2777 65.5236 40.1031 66.3537 40.1031 67.3792C40.1031 68.4026 39.2777 69.2327 38.2625 69.2327C37.3381 69.2327 36.5752 68.5491 36.444 67.6559C36.3229 67.6152 36.1958 67.5888 36.0646 67.5745C36.1635 68.7139 37.11 69.6051 38.2645 69.6051C39.4855 69.6051 40.4745 68.6081 40.4745 67.3792C40.4704 66.1503 39.4815 65.1533 38.2604 65.1533Z" fill="white"/>
<path d="M35.6777 67.5768C35.7403 67.5686 35.8049 67.5666 35.8695 67.5666C36.7918 67.5666 37.5547 68.2502 37.6899 69.1434C37.811 69.1841 37.9382 69.2106 38.0694 69.2248C37.9705 68.0875 37.0239 67.1963 35.8695 67.1963C35.8049 67.1963 35.7423 67.1983 35.6797 67.2044C35.6838 67.2634 35.6858 67.3224 35.6858 67.3835C35.6858 67.4466 35.6838 67.5117 35.6777 67.5768Z" fill="white"/>
<path d="M37.7048 69.5352C37.6463 70.5057 36.845 71.2748 35.8682 71.2748C34.851 71.2748 34.0275 70.4447 34.0275 69.4192C34.0275 68.5972 34.5583 67.8973 35.295 67.6573C35.3091 67.5657 35.3152 67.4741 35.3152 67.3805C35.3152 67.3419 35.3132 67.3032 35.3112 67.2666C34.3606 67.5148 33.6582 68.3856 33.6582 69.4213C33.6582 70.6522 34.6471 71.6472 35.8662 71.6472C37.0267 71.6472 37.9773 70.7458 38.0681 69.5983C37.945 69.5861 37.8239 69.5657 37.7048 69.5352Z" fill="white"/>
<path d="M22.1409 63.7858C21.5313 64.1907 21.2226 64.7869 21.5959 65.3566C21.9491 65.8978 22.595 65.9181 23.2509 65.4827C23.9734 64.9863 24.1127 64.3779 23.7978 63.8957C23.4588 63.3769 22.8372 63.324 22.1409 63.7858ZM23.0471 65.1694C22.5183 65.5193 22.0864 65.5214 21.8664 65.1836C21.6383 64.8337 21.8401 64.4288 22.3366 64.0992C22.8775 63.739 23.3094 63.739 23.5314 64.0768C23.7595 64.4288 23.5597 64.8296 23.0471 65.1694ZM22.8755 63.1022L23.1823 62.972C22.93 62.3738 22.375 62.4674 21.1822 62.9781L20.8128 63.1368L20.5525 62.5183L22.5829 61.6495L22.4416 61.3158L20.1105 62.3128L20.6453 63.5864L21.2952 63.3097C22.1187 62.9537 22.7362 62.7726 22.8755 63.1022ZM22.2095 60.4958L20.0641 59.8997L21.9855 59.4745L21.9067 59.1103L19.4344 59.6576L19.5191 60.0462L21.6706 60.6444L21.6726 60.6545L19.7452 61.0818L19.8219 61.4399L22.2942 60.8926L22.2095 60.4958ZM21.8401 58.3107L20.0217 58.333L21.1075 57.7959L21.1035 57.5029L19.9833 56.978V56.9698L21.824 56.9475L21.82 56.5812L19.2891 56.6117L19.2931 56.9881L20.6655 57.6474L19.3092 58.3147L19.3133 58.7094L21.8442 58.6789L21.8401 58.3107ZM21.9431 55.7796L19.7755 55.3727L19.947 54.4408L22.1146 54.8477L22.1812 54.4896L19.6927 54.0217L19.388 55.6717L21.8765 56.1397L21.9431 55.7796ZM22.4416 53.6819L20.9864 51.985L22.819 52.7073L22.9542 52.3594L20.5949 51.4316L20.4516 51.8019L21.9128 53.5028L21.9088 53.511L20.0701 52.7866L19.9369 53.1285L22.2942 54.0562L22.4416 53.6819ZM21.386 49.7489C21.5576 49.4763 21.5576 49.2627 21.3114 49.104L21.3073 49.0938L21.1499 49.3196C21.3093 49.4214 21.269 49.5475 21.2104 49.6391C21.1338 49.7611 21.0429 49.81 20.8996 49.7205L20.7644 49.9585C21.0106 50.1131 21.2084 50.0297 21.386 49.7489ZM21.7735 49.3949L22.8816 51.3482L22.8775 51.3563L21.2104 50.2881L21.0147 50.5974L23.152 51.9646L23.368 51.6228L22.262 49.6757L23.929 50.7317L24.1228 50.4244L21.9855 49.0572L21.7735 49.3949ZM24.8877 49.1426C24.5628 49.5007 24.1147 49.4295 23.6606 49.0124C23.1823 48.5709 23.1036 48.1334 23.4063 47.7977C23.5052 47.6899 23.6606 47.5597 23.816 47.5169L23.5819 47.285C23.4164 47.344 23.267 47.4824 23.1621 47.5983C22.6939 48.1172 22.8513 48.7784 23.4245 49.3054C23.9835 49.8201 24.6213 49.9382 25.0895 49.4214C25.2268 49.2708 25.3236 49.1101 25.358 48.9432L25.36 48.9269L25.1178 48.7113C25.0915 48.8842 24.9705 49.0511 24.8877 49.1426ZM25.2833 45.7794L24.9644 46.0378L25.1662 47.3033L25.0512 47.3969L24.3589 46.5301L24.0764 46.7601L25.6627 48.7479L25.9453 48.518L25.251 47.6492L25.3701 47.5536L26.5346 48.0419L26.8676 47.7713L25.477 47.2077L25.2833 45.7794ZM26.4741 45.0489L27.0109 47.6634L27.3399 47.4803L27.1683 46.7377L27.8303 46.3694L28.3591 46.9127L28.6941 46.7255L26.8091 44.8597L26.4741 45.0489ZM26.8595 45.3704L27.6023 46.1334L27.0957 46.4142L26.8535 45.3725L26.8595 45.3704ZM28.8697 43.9604C28.4237 44.113 28.2925 44.5586 28.4358 44.9818C28.571 45.3806 28.8536 45.5454 29.0554 45.5678L28.8899 46.6482L29.2693 46.5179L29.4086 45.5027L29.7598 45.3826L30.0524 46.2494L30.3935 46.1314L29.5781 43.7163L28.8697 43.9604ZM29.2734 45.226C29.0493 45.3033 28.8758 45.1405 28.7829 44.8618C28.7184 44.6379 28.7385 44.3511 29.0312 44.2514L29.3279 44.1496L29.6468 45.0978L29.2734 45.226ZM33.0273 43.1689L32.6217 43.2076L32.0969 44.3734L31.9496 44.3877L31.8487 43.2788L31.4854 43.3134L31.7195 45.8547L32.0828 45.8201L31.9799 44.7092L32.1312 44.6949L32.8356 45.7509L33.2615 45.7122L32.4097 44.4691L33.0273 43.1689ZM34.4885 43.1812C33.8467 43.1344 33.437 43.6389 33.3825 44.4284C33.3341 45.3073 33.7277 45.7896 34.2988 45.8302C34.9144 45.875 35.3342 45.4091 35.3927 44.5708C35.4452 43.8383 35.1647 43.23 34.4885 43.1812ZM35.0274 44.5362C34.981 45.1873 34.7186 45.5352 34.319 45.5047C33.9033 45.4742 33.7095 45.0713 33.7519 44.4528C33.7963 43.816 34.0587 43.4701 34.4603 43.4986C34.874 43.5311 35.0698 43.938 35.0274 44.5362ZM37.9741 43.9096L36.9569 45.0489L36.7066 43.5494L36.3292 43.4416L35.641 45.8974L35.9901 45.9971L36.4846 44.2331L36.6864 45.4335L36.967 45.5128L37.7844 44.5789L37.7945 44.581L37.2939 46.3674L37.6431 46.4671L38.3313 44.0113L37.9741 43.9096ZM39.7421 44.6583L37.8954 46.5729L38.2304 46.7458L38.743 46.1863L39.4171 46.5342L39.2658 47.2809L39.6068 47.4559L40.0832 44.8353L39.7421 44.6583ZM39.4837 46.2087L38.9691 45.9442L39.6896 45.1588L39.6957 45.1608L39.4837 46.2087ZM41.2679 48.7153L42.8098 46.6909L42.5212 46.4671L41.8552 47.342L41.0075 46.6848L41.6735 45.8099L41.3849 45.5861L39.843 47.6105L40.1316 47.8343L40.8097 46.9432L41.6574 47.6004L40.9793 48.4915L41.2679 48.7153ZM42.937 50.0562L44.5879 48.5831L43.6898 47.5617L43.1812 48.0154C42.5414 48.5872 42.0711 48.9168 41.8128 48.7805L41.722 48.6726L41.0035 49.3135L41.2356 49.578L41.7099 49.1548L42.6423 50.2169L42.168 50.6401L42.4001 50.9066L43.1186 50.2657L42.937 50.0562ZM42.0913 49.0979C42.4445 49.0287 42.8704 48.752 43.383 48.2942L43.6696 48.0378L44.0954 48.5221L42.6887 49.7774L42.0913 49.0979ZM43.1792 50.9717L43.9098 50.7744L44.2973 51.4295L43.7766 51.9809L43.9723 52.3126L45.7605 50.3532L45.5627 50.0195L42.9874 50.6482L43.1792 50.9717ZM45.2539 50.4102L45.258 50.4163L44.5253 51.1895L44.2287 50.6869L45.2539 50.4102ZM44.5112 53.7368L45.3326 53.4784L45.4517 53.863C45.5546 54.1946 45.9724 54.3716 46.4447 54.2231C46.8524 54.0949 47.1773 53.7592 47.0542 53.3604L46.8221 52.6279L44.4063 53.3869L44.5112 53.7368ZM46.6243 53.0735L46.7111 53.3563C46.7878 53.6066 46.5759 53.7856 46.3377 53.8609C46.1117 53.9321 45.8231 53.926 45.7423 53.6615L45.6556 53.3787L46.6243 53.0735ZM46.142 54.803C45.2761 54.9271 44.8846 55.4113 44.9572 55.983C45.036 56.6016 45.5708 56.923 46.3963 56.8193C47.1208 56.7257 47.6577 56.3289 47.5729 55.6514C47.4922 55.0085 46.921 54.7033 46.142 54.803ZM47.256 55.686C47.3085 56.101 46.9513 56.3757 46.3599 56.451C45.7161 56.5344 45.3286 56.3411 45.2782 55.9403C45.2257 55.5232 45.5809 55.2526 46.1904 55.1733C46.8181 55.0939 47.2056 55.2852 47.256 55.686ZM46.3821 57.3239C45.6273 57.2872 45.0602 57.6067 45.0259 58.3046C45.0158 58.508 45.042 58.6952 45.1207 58.8458L45.1288 58.86L45.4517 58.8702C45.3609 58.7217 45.3488 58.5141 45.3548 58.39C45.3791 57.9058 45.7706 57.6738 46.3821 57.7023C47.03 57.7349 47.367 58.0217 47.3469 58.4755C47.3388 58.622 47.3004 58.8213 47.2096 58.9536L47.5386 58.9821C47.6274 58.8295 47.6557 58.6281 47.6637 58.4714C47.696 57.7694 47.1551 57.3625 46.3821 57.3239ZM46.259 59.2893C45.5183 59.1387 44.9088 59.3687 44.7716 60.0543C44.7312 60.2558 44.7292 60.4429 44.7837 60.6037L44.7897 60.6179L45.1066 60.6769C45.038 60.5162 45.0582 60.3087 45.0824 60.1866C45.1772 59.7105 45.599 59.5396 46.2005 59.6637C46.8362 59.7939 47.1269 60.1296 47.0381 60.5732C47.0098 60.7176 46.9412 60.9089 46.8302 61.0249L47.1511 61.1042C47.2621 60.9679 47.3206 60.7705 47.3529 60.6179C47.4922 59.9302 47.0179 59.446 46.259 59.2893ZM44.493 61.2975L45.9442 62.9964L44.1136 62.27L43.9784 62.6159L46.3337 63.5498L46.479 63.1795L45.0218 61.4745L45.0259 61.4664L46.8625 62.1948L46.9957 61.8529L44.6404 60.919L44.493 61.2975ZM43.5626 63.3525L44.6626 65.3016L43.0036 64.2335L42.8038 64.5488L44.9371 65.9222L45.151 65.5865L44.047 63.6312L44.051 63.6231L45.7141 64.6933L45.9099 64.384L43.7766 63.0106L43.5626 63.3525Z" fill="white"/>
</g>
<defs>
<clipPath id="clip0">
<rect width="69.0829" height="94.6" fill="white"/>
</clipPath>
</defs>
</svg>
