<svg width="16" height="10" viewBox="0 0 16 10" fill="none" xmlns="http://www.w3.org/2000/svg">
<path d="M8.62432 9.44469L15.7444 2.32449C15.9092 2.15981 16 1.93997 16 1.70557C16 1.47116 15.9092 1.25133 15.7444 1.08664L15.2202 0.562291C14.8786 0.22109 14.3234 0.22109 13.9823 0.562291L8.00332 6.5413L2.01768 0.555656C1.85286 0.390975 1.63316 0.300049 1.39888 0.300049C1.16435 0.300049 0.944643 0.390975 0.779701 0.555656L0.255608 1.08001C0.0907965 1.24482 9.53674e-07 1.46453 9.53674e-07 1.69893C9.53674e-07 1.93334 0.0907965 2.15317 0.255608 2.31785L7.38218 9.44469C7.54752 9.60976 7.76826 9.70043 8.00293 9.69991C8.2385 9.70043 8.45912 9.60976 8.62432 9.44469Z"/>
</svg>
