<svg width="94" height="89" viewBox="0 0 94 89" fill="none" xmlns="http://www.w3.org/2000/svg">
<path d="M92.0108 67.6375C93.3453 58.7002 95.1517 46.6242 91.9403 34.7665C92.8277 33.5455 92.553 32.1768 91.4474 29.2493C91.9967 28.3802 92.0389 27.3176 91.5777 26.4098C89.5459 22.4372 86.6127 19.0207 83.5527 15.9243C84.1161 14.837 83.94 13.4859 83.0421 12.5816C79.7533 9.27057 74.2284 6.13899 67.4887 3.76392C56.7771 -0.00803805 41.7765 -2.10514 31.755 3.16223C30.9381 3.5915 30.3958 4.37616 30.2585 5.25582C24.8745 8.33109 20.4553 12.6273 17.1066 18.0566C13.5043 23.894 12.367 29.0699 12.0465 31.0227C11.9127 31.8355 12.1099 32.6483 12.5923 33.2746C12.3564 34.4428 12.1522 35.6919 11.9796 37.0079C5.81037 40.5933 1.87712 48.2147 1.11653 49.7805C0.79257 50.449 0.743268 51.1985 0.968628 51.8881C-0.246206 54.8719 -1.04905 57.8451 0.968628 60.3504C3.15181 63.0597 7.47239 63.3342 9.71543 60.4771C11.1556 59.8296 11.2754 58.5735 11.5183 57.7712C12.124 70.2694 13.2296 76.237 12.4655 79.7098C11.6451 83.4325 13.9128 85.6739 17.4199 85.023C18.8566 86.1982 21.1243 86.0398 22.8251 85.3995C24.804 86.8597 29.0155 85.3783 31.086 82.9611C34.9769 78.422 34.1178 75.4558 34.7058 68.8303C35.4523 68.4291 36.0967 67.6551 36.2763 66.3602C36.3573 65.7831 36.3326 64.8014 36.2446 63.7283C39.1813 64.6466 43.0618 65.382 47.3964 65.382C51.1783 65.382 54.6784 64.7839 57.675 63.6403C58.2595 64.2737 59.0518 64.6677 59.9004 64.7522C60.4885 65.4066 61.323 65.7831 62.2244 65.7831C62.4146 65.7831 62.6047 65.7655 62.7949 65.7304C65.0485 65.3187 66.8936 64.7944 68.3197 64.1611C68.6754 68.9851 70.0064 77.9963 73.5101 82.5072C75.1299 84.5902 78.7251 86.4726 80.8343 84.8435C82.6935 85.2165 84.845 85.3045 86.0669 83.8653C91.2326 84.3791 93.1517 80.973 91.3136 77.8309C90.5495 76.529 91.7713 69.249 92.0108 67.6375Z" fill="black"/>
<path d="M10.7546 53.7138C9.57497 52.5175 8.09957 51.6977 7.26855 51.1734C7.07488 51.0538 7.0291 50.8004 7.16291 50.6174C7.43052 50.2515 7.59251 49.9806 7.90942 50.0967C8.55381 50.336 9.24398 50.6808 9.83555 51.008C10.0609 51.1312 10.2722 50.818 10.0715 50.6597C9.75808 50.4134 9.39891 50.1636 8.99396 49.9524C8.751 49.8222 8.70875 49.4915 8.92002 49.312C9.51511 48.8054 9.68413 48.5696 9.98344 48.7526C10.4729 49.0446 11.0926 49.4246 11.73 49.8609C11.7898 48.7667 11.8779 47.6583 12.0082 46.5992C11.892 46.6977 11.7758 46.7962 11.6666 46.8877C11.4025 47.1094 11.0116 47.0848 10.7828 46.8314C10.0644 46.0327 8.67 44.6217 7.53616 43.8828C6.43048 45.2269 5.48679 46.6062 4.72267 47.8553C5.99033 49.1607 6.78613 49.0517 6.50443 49.5443C6.41992 49.6921 6.22978 49.7448 6.08189 49.6569C5.47271 49.305 4.96212 48.9637 4.3952 48.4042C3.72616 49.5372 3.19444 50.5928 3.11346 50.7969C4.07828 51.9616 5.50792 52.8834 6.89177 53.5344C7.30024 53.7279 7.47278 54.217 7.26502 54.6181C6.95515 55.2128 6.11358 56.7047 5.81779 57.4084C5.66286 57.7778 5.25439 57.9749 4.87057 57.8623C3.8811 57.5703 2.88105 57.0636 1.97961 56.4232C1.7789 58.8123 3.65926 60.2831 5.49736 60.2831C6.63472 60.2831 7.75449 59.7236 8.36014 58.471C8.67353 58.5801 9.05383 58.4112 9.14186 58.0417C9.26511 57.5245 9.39539 57.1163 9.39187 57.1234C9.00101 56.7926 8.5679 56.5147 8.10661 56.2965C7.73688 56.1206 8.00097 55.5611 8.37071 55.737C8.80734 55.9411 9.2158 56.198 9.5961 56.4935C9.70878 56.1839 10.3708 54.3894 10.7546 53.7138Z" fill="white"/>
<path d="M89.2863 33.626C89.3955 33.6928 89.5081 33.7245 89.6208 33.7245C89.9976 33.7245 90.3321 33.3796 90.2441 32.9609C89.9025 31.3388 89.3814 30.037 88.6701 28.2917C88.737 28.3058 88.8109 28.3234 88.8814 28.341C88.9342 28.3515 88.9835 28.3586 89.0328 28.3586C89.487 28.3586 89.818 27.866 89.5962 27.4297C87.2651 22.873 83.6347 19.0518 79.9303 15.491C80.2543 15.3995 80.5677 15.3326 81.1205 15.2376C81.6311 15.1497 81.8283 14.5269 81.4621 14.1574C75.3069 7.95761 59.9718 2.23633 46.6931 2.23633C41.5274 2.23633 36.6751 3.10191 32.7912 5.14271C32.256 5.4242 32.3792 6.22645 32.9778 6.33201C19.752 13.0033 15.1779 25.7161 14.2412 31.3951C14.1672 31.835 14.4454 32.1516 14.8187 32.1516C14.9208 32.1516 15.03 32.127 15.1426 32.0778C15.1462 32.0742 15.1497 32.0742 15.1497 32.0742C15.1497 32.0742 15.1462 32.0742 15.1426 32.0778C14.6567 34.0517 14.3011 36.1945 14.0475 38.4394C12.5756 39.1431 11.2129 40.1424 9.98047 41.2789C10.6706 41.8736 11.6988 42.799 12.5158 43.6962C12.8714 42.2606 13.3574 41.1488 14.0229 40.6597C13.551 44.0622 13.5229 49.5336 13.5827 53.3478C13.7729 60.3639 14.375 67.2921 14.7905 72.7847C15.0828 76.634 14.9701 78.7311 14.6461 80.2019C14.1672 82.3764 15.1497 82.9254 16.2413 82.9254C17.266 82.9254 18.3857 82.4468 18.4984 82.3659C18.3681 83.2913 19.1639 83.6783 20.1886 83.6783C21.5478 83.6783 23.3084 82.9957 23.8472 81.9718C23.8789 82.2075 23.4775 83.7733 24.6888 83.7733C24.731 83.7733 24.7768 83.7698 24.8226 83.7663C26.8931 83.5904 28.4319 82.6509 29.3967 81.5249C33.006 77.3131 31.7172 75.0788 32.675 66.803C32.9004 66.9015 33.1187 66.9649 33.3159 66.9649C33.6926 66.9649 33.9779 66.7291 34.0729 66.0641C34.1504 65.5117 34.0765 64.2028 33.925 62.8762C32.9461 62.4857 31.9743 62.0353 31.1573 61.5568C30.3439 62.7707 28.3086 62.6862 26.8262 61.8207C24.7944 60.6384 22.5725 57.0494 22.5725 54.6743C23.9071 56.7996 25.9247 58.7243 27.7523 59.7306C28.8615 60.3428 30.277 59.6497 29.6467 58.3724C33.425 60.4625 37.6365 61.8207 37.6365 61.8207C37.6365 61.8207 37.64 61.8277 37.64 61.8312C40.4147 62.6159 43.855 63.1683 47.3974 63.1683C51.4081 63.1683 55.5526 62.4646 59.0246 60.5962C59.0316 60.758 59.0211 60.9234 58.9929 61.0817C58.8626 61.8699 59.5 62.5561 60.257 62.5561C60.3591 62.5561 60.4648 62.542 60.5704 62.5173C60.8556 62.4435 61.1409 62.3555 61.4155 62.2464C61.0986 62.8657 61.5705 63.5659 62.2219 63.5659C62.2782 63.5659 62.3346 63.5624 62.3909 63.5518C64.4931 63.1683 67.7045 62.3942 69.12 61.1029C69.1517 61.124 69.1517 61.1204 69.1834 61.1416C69.0285 61.7573 69.5179 62.3062 70.0954 62.3062C70.2046 62.3062 70.3173 62.2851 70.43 62.2429L70.4511 62.2359C70.4511 62.2429 70.4511 62.2499 70.4511 62.2534C71.3349 61.9157 72.1871 61.4899 72.9864 60.9797L72.9758 60.9973C70.8138 64.1394 78.0676 62.8587 81.9445 57.6194C81.2121 62.4927 73.5568 66.525 71.9899 63.7348C71.4617 64.0303 70.9476 64.2344 70.5743 64.3646C70.9652 69.2309 72.3103 77.3378 75.2752 81.159C76.2189 82.3764 77.9021 83.2526 78.8986 83.2526C79.4866 83.2526 79.8353 82.9464 79.6486 82.2251C80.0817 82.4081 81.6874 82.869 82.9445 82.869C84.0784 82.869 84.9305 82.4961 84.3812 81.2118C85.1101 81.5214 86.1066 81.7079 87.0468 81.7079C88.9166 81.7079 90.5575 80.969 89.3955 78.9774C86.6348 74.2484 95.3957 52.9608 89.2863 33.626Z" fill="white"/>
<path d="M78.8938 83.2348C78.8128 83.2348 78.7248 83.2278 78.6367 83.2172C79.341 84.8182 79.3163 88.3157 71.2245 84.8147C68.2842 83.5444 63.0376 82.6894 61.5199 85.923C61.3051 85.9195 61.1643 86.1095 61.0058 86.2749C60.8016 86.3734 60.6009 86.4754 60.4037 86.5845C60.2417 86.6725 60.1748 86.866 60.2382 87.0384C60.217 87.0595 60.1959 87.0806 60.1748 87.1018C59.8262 87.4606 60.3755 88.0834 61.0128 87.5697C60.9952 87.7808 61.1607 87.9744 61.3896 87.9673C61.4143 88.2277 61.6889 88.3825 61.9249 88.2664C62.122 88.4986 62.5657 88.4494 62.5833 87.9532C63.2524 88.1116 63.0939 86.9258 62.7805 86.3136C64.0059 84.1602 68.4181 85.0117 70.7069 86.0039C80.7741 90.3565 80.922 84.776 79.6544 82.2637C79.8058 82.9463 79.4642 83.2348 78.8938 83.2348Z" fill="#75C4F4"/>
<path d="M15.1449 32.0674C15.1377 32.071 15.1342 32.0746 15.1342 32.0746C15.1306 32.0746 15.1342 32.0746 15.1449 32.0674Z" fill="#081110"/>
<path d="M70.0492 21.4733C70.0563 21.2446 69.8661 21.1425 69.6901 21.1672C69.4999 20.5655 68.4788 20.4529 68.5562 21.987C68.4435 21.5261 68.6795 21.044 68.8696 20.6359C69.0457 20.2629 68.4893 19.9321 68.3133 20.3086C67.2146 22.6415 68.5492 23.2045 69.0351 22.9335C69.5704 23.127 69.9154 22.4796 70.0105 21.8779C70.0492 21.7935 70.0457 21.5824 70.0492 21.4733Z" fill="#D55849"/>
<path d="M26.7882 19.3934C25.8762 18.9993 25.6262 20.171 25.3199 21.0331C25.2565 19.2139 25.3269 19.0169 25.1332 18.7143C24.8551 18.2815 24.4219 18.3695 24.1191 18.7248C23.9642 18.9078 23.8304 19.126 23.7071 19.3512C23.6226 19.133 23.2775 19.0239 23.1226 19.2913C22.7 20.0127 22.4148 20.7656 22.2599 21.5855C22.2176 21.8107 22.4043 22.0675 22.6578 21.9831C23.3233 21.7544 23.7142 20.6601 24.0487 20.1041C24.1367 19.9599 24.4924 19.1295 24.6579 19.0873C24.4924 19.1295 24.6966 21.7051 24.7107 22.0746C24.7248 22.4335 25.3093 22.7537 25.8551 21.4729C26.3657 20.273 26.3199 19.7452 26.6051 20.1253C26.7565 20.3293 26.7178 20.9064 26.7671 21.1457C27.0629 22.6235 28.0277 21.8177 27.6052 21.4694C27.003 20.9732 27.6157 19.7488 26.7882 19.3934Z" fill="#D55849"/>
<path d="M65.0776 23.7918C65.0319 23.5842 64.8487 23.5279 64.6938 23.5772C64.6023 23.4048 64.5072 23.2464 64.4227 23.1163C64.2783 22.8875 63.905 22.9157 63.8311 23.1937C63.7888 23.359 63.7642 23.5244 63.7607 23.6898C63.574 23.6968 63.3804 23.8516 63.4297 24.0909C63.5564 24.7067 63.9262 25.2169 64.4579 25.5476C64.56 25.6109 64.7149 25.6004 64.8135 25.523C64.9403 25.5159 65.0565 25.4491 65.0882 25.2978C65.1903 24.7876 65.1903 24.2985 65.0776 23.7918Z" fill="black"/>
<path d="M21.4028 31.0371C21.1985 30.9315 20.9027 31.0582 20.9168 31.3151C20.9204 31.3784 20.9204 31.4417 20.9204 31.5051C20.7126 31.0301 20.4591 30.5093 19.9802 30.6993C19.8569 30.7486 19.7513 30.8436 19.6598 30.9562C19.5189 30.8647 19.3076 30.8576 19.1844 31.0336C18.6949 31.7338 18.4203 32.4938 18.3111 33.3383C18.2688 33.662 18.7724 33.7675 18.9132 33.5001C19.0999 33.1447 20.114 31.5297 20.1386 31.3749C20.1386 31.3749 20.2408 31.6423 20.8288 32.997C20.9415 33.2538 21.3605 33.1729 21.4204 32.9196C21.4767 32.6733 21.5155 32.4269 21.5401 32.1806C21.7514 32.2651 22.0613 32.0962 21.9943 31.8006C21.9169 31.4558 21.7267 31.2025 21.4028 31.0371Z" fill="black"/>
<path d="M42.2785 21.5575C42.3137 21.7792 42.3278 21.9903 42.3314 22.2014C42.2961 22.0888 42.2644 21.9762 42.2328 21.8636C42.1975 21.1881 42.0884 20.509 42.0391 19.9706C42.0039 19.5625 41.4123 19.5484 41.3912 19.9706C41.3172 21.6068 41.7609 21.7933 41.5391 22.9474C40.8876 21.4449 40.9721 19.7102 40.4721 18.1515C40.3771 17.8524 39.9404 17.8383 39.8489 18.1515C39.7679 18.433 39.701 18.718 39.6446 19.003C39.6587 18.6265 39.0777 18.4752 39.0178 18.8693C38.7573 20.6216 38.6023 22.3668 39.3488 24.0241C39.4897 24.3337 39.9404 24.1543 39.951 23.8622C39.9968 22.4864 39.9756 21.0825 40.1763 19.7173C40.4264 21.1529 40.5144 22.6272 41.3102 23.9009C41.4405 24.112 41.7363 24.1085 41.8665 23.9009C41.9722 23.7391 42.0461 23.5561 42.106 23.3626C42.1412 23.4365 42.1764 23.5104 42.2152 23.5843C42.3454 23.8306 42.7363 23.7707 42.8067 23.5068C42.9933 22.7926 43.018 22.1205 42.9053 21.3921C42.8384 20.9769 42.2152 21.1494 42.2785 21.5575Z" fill="#F7D145"/>
<path d="M53.3276 7.95059C53.2396 8.16875 52.8839 9.24193 52.3909 8.86544C52.1057 8.64728 51.9473 7.12371 51.324 6.88093C51.074 6.78241 50.8838 6.87741 50.7007 7.04278C50.5071 7.2152 50.4578 7.50373 50.2571 7.67614C50.2923 7.37706 50.2676 7.29261 50.4331 6.74722C50.5458 6.3461 49.9225 6.17369 49.8099 6.57481C49.6725 7.0639 49.2535 8.1793 49.9894 8.40098C50.5247 8.56283 50.824 7.92596 51.0071 7.74651C51.0493 7.67965 51.0916 7.61632 51.1303 7.54947C51.1867 7.70077 51.2536 7.84856 51.3275 7.99634C51.5811 8.58043 51.7958 9.69231 52.6233 9.72046C53.2079 9.74157 53.5565 9.09063 53.7819 8.54524C54.0213 8.46783 53.9755 8.24968 53.9614 8.03856C53.9403 7.65855 53.4614 7.61633 53.3276 7.95059Z" fill="#F7D145"/>
<path d="M72.98 12.3101C72.9377 12.011 72.5962 12.0251 72.4342 12.2116C72.3004 11.9793 71.5644 11.2088 71.4835 11.1102C71.2616 10.8569 70.8708 11.1278 70.9447 11.4234C71.0363 11.7964 71.0644 12.1482 71.0363 12.5071C70.6947 12.2292 70.3919 11.916 70.1102 11.5677C69.8496 11.2439 69.3953 11.7049 69.6524 12.0251C70.0714 12.5458 70.5538 12.9857 71.1067 13.3657C71.2757 13.4818 71.5363 13.3657 71.582 13.1722C71.6489 12.8871 71.6806 12.6057 71.6877 12.3242C71.737 12.3805 71.7863 12.4403 71.8391 12.4966C71.987 12.6655 72.1278 12.8555 72.3532 12.9188C72.7722 13.0384 73.0328 12.6936 72.98 12.3101Z" fill="#F7D145"/>
<path d="M38.812 9.68535C38.5796 9.58683 38.4176 9.42498 38.3155 9.19275C38.1359 8.87256 37.6218 9.08719 37.7239 9.44257C38.4247 11.8563 37.8261 11.0928 37.4422 10.8465C37.0408 10.5896 36.6394 10.3363 36.2344 10.0794C35.9527 9.89999 35.6429 10.2483 35.7908 10.5228C35.8788 10.6811 36.7169 12.2715 36.6042 12.3102C36.5197 12.3419 34.7097 10.8852 34.6428 10.8289C34.3224 10.5685 33.8646 11.0224 34.1851 11.2863C34.7802 11.7754 35.3893 12.2434 36.0161 12.6867C36.3049 12.8908 36.7204 13.299 37.1112 13.0632C37.5584 12.7923 37.3401 12.071 37.0197 11.406C38.2099 12.1695 38.8296 12.0112 38.562 10.2765C38.8965 10.3539 39.1465 9.87184 38.812 9.68535Z" fill="#7BB85E"/>
<path d="M86.3447 28.3273C86.0313 28.088 85.5489 28.2992 85.5101 28.9325C85.5066 28.9325 85.5066 28.929 85.5031 28.929C85.2284 28.7495 84.9503 28.556 84.6122 28.2992C84.2812 28.0493 83.9572 28.6088 84.2847 28.8551C85.2496 29.587 85.4256 29.6644 85.6123 29.6609C85.894 29.6573 86.1581 29.4075 86.1581 28.9677C86.1616 28.9571 86.1616 28.9501 86.1616 28.9431C86.4327 28.9747 86.6229 28.5419 86.3447 28.3273Z" fill="#7BB85E"/>
<path d="M52.3236 32.0705C52.2849 32.25 52.2286 32.4153 52.1652 32.5772C51.9962 32.4716 51.7426 32.5033 51.6969 32.7531C51.6405 33.0487 51.6722 33.302 51.7954 33.5765C51.9046 33.8228 52.2286 33.7489 52.3518 33.5765C52.6441 33.1789 52.8448 32.725 52.9469 32.2429C53.0349 31.8383 52.4117 31.6659 52.3236 32.0705Z" fill="#75C4F4"/>
<path d="M60.7477 15.0367C60.3357 14.7728 59.9026 14.6321 59.4167 14.5723C59.2124 14.5476 59.0469 14.7975 59.1068 14.9804C59.1385 15.0754 59.1596 15.1669 59.1667 15.2584C58.973 15.0543 58.7934 14.8432 58.6279 14.611C58.3885 14.2767 57.8286 14.5969 58.0716 14.9382C58.3814 15.3745 58.7265 15.7686 59.1279 16.1205C59.2723 16.2471 59.5399 16.2542 59.635 16.0536C59.7512 15.8038 59.8146 15.5575 59.8146 15.3041C60.0294 15.371 60.2301 15.466 60.4237 15.5927C60.7723 15.8214 61.0963 15.2619 60.7477 15.0367Z" fill="#75C4F4"/>
<path d="M73.9511 44.5172C75.6378 41.6178 77.2294 33.5989 75.1519 31.9029C72.5109 29.746 66.972 35.2351 66.222 35.9353C66.0776 33.4159 70.8242 29.9712 74.2293 29.6932C74.8314 29.644 75.3983 29.9818 75.673 30.5201C75.7681 30.7031 75.8315 30.7946 75.8315 30.7946C75.842 30.7875 75.8561 30.784 75.8667 30.777C76.6871 30.404 77.6484 30.8579 77.8844 31.7235C78.8316 35.2245 78.7823 42.7684 73.9511 44.5172Z" fill="black"/>
<path d="M29.7828 43.1128C28.2863 40.1149 27.2088 32.008 29.3884 30.4493C32.1597 28.4648 37.3394 34.2951 38.0437 35.0411C37.431 31.8637 32.9731 28.032 29.3356 28.2501C29.068 28.9433 28.7828 29.2987 28.7828 29.2987C27.6419 28.6829 27.1806 28.8201 27.1806 28.8201C25.8038 31.8286 24.1418 38.9432 29.7828 43.1128Z" fill="black"/>
<path d="M62.4646 44.0274C59.5948 43.9324 57.1897 46.1491 57.0982 48.9605C57.0102 51.7719 59.2708 54.1328 62.1371 54.2243C62.1935 54.2279 62.2498 54.2279 62.3097 54.2279C65.102 54.2279 67.4155 52.0463 67.5035 49.2947C67.5951 46.4798 65.3344 44.1188 62.4646 44.0274Z" fill="#DC7D43"/>
<path d="M62.4475 44.5836C62.3947 44.5836 62.3454 44.5801 62.2961 44.5801C59.803 44.5801 57.7361 46.5224 57.6586 48.9748C57.5776 51.4801 59.5988 53.5807 62.1588 53.6652C64.7223 53.7496 66.8702 51.7757 66.9477 49.2739C67.0287 46.7687 65.0075 44.6645 62.4475 44.5836Z" fill="#F7D145"/>
<path d="M62.241 50.3151C62.8983 50.3151 63.4312 49.7826 63.4312 49.1258C63.4312 48.469 62.8983 47.9365 62.241 47.9365C61.5836 47.9365 61.0508 48.469 61.0508 49.1258C61.0508 49.7826 61.5836 50.3151 62.241 50.3151Z" fill="black"/>
<path d="M62.2399 47.1095C62.6756 47.1095 63.0287 46.7567 63.0287 46.3214C63.0287 45.8861 62.6756 45.5332 62.2399 45.5332C61.8043 45.5332 61.4512 45.8861 61.4512 46.3214C61.4512 46.7567 61.8043 47.1095 62.2399 47.1095Z" fill="white"/>
<path d="M42.1892 44.0274C39.3194 43.9324 36.9144 46.1491 36.8228 48.9605C36.7348 51.7719 38.9954 54.1328 41.8617 54.2243C41.9181 54.2279 41.9744 54.2279 42.0343 54.2279C44.8266 54.2279 47.1401 52.0463 47.2281 49.2947C47.3197 46.4798 45.059 44.1188 42.1892 44.0274Z" fill="#DC7D43"/>
<path d="M42.1721 44.5836C42.1193 44.5836 42.07 44.5801 42.0207 44.5801C39.5277 44.5801 37.4607 46.5224 37.3832 48.9748C37.3022 51.4801 39.3234 53.5807 41.8834 53.6652C44.4469 53.7496 46.5948 51.7757 46.6723 49.2739C46.7533 46.7687 44.7321 44.6645 42.1721 44.5836Z" fill="#F7D145"/>
<path d="M42.0339 50.3151C42.6913 50.3151 43.2241 49.7826 43.2241 49.1258C43.2241 48.469 42.6913 47.9365 42.0339 47.9365C41.3766 47.9365 40.8438 48.469 40.8438 49.1258C40.8438 49.7826 41.3766 50.3151 42.0339 50.3151Z" fill="black"/>
<path d="M42.0349 47.1379C42.4705 47.1379 42.8236 46.785 42.8236 46.3497C42.8236 45.9144 42.4705 45.5615 42.0349 45.5615C41.5992 45.5615 41.2461 45.9144 41.2461 46.3497C41.2461 46.785 41.5992 47.1379 42.0349 47.1379Z" fill="white"/>
<path d="M54.1461 51.3887L50.1601 51.2621C49.653 51.2445 49.41 51.8743 49.7938 52.2051L51.7376 53.8623C51.9277 54.0242 52.2059 54.0348 52.4066 53.8835L54.4525 52.3529C54.8539 52.0503 54.6532 51.4063 54.1461 51.3887Z" fill="black"/>
<path d="M53.5677 54.4115C53.0994 54.2391 52.6205 54.1582 52.1452 54.1582C51.5642 54.1582 50.9937 54.2814 50.469 54.5101C50.1275 54.6578 49.9726 55.0554 50.1204 55.3932C50.2683 55.7345 50.6662 55.8894 51.0043 55.7416C51.3634 55.5832 51.7508 55.5023 52.1452 55.5023C52.4656 55.5023 52.786 55.5551 53.1029 55.6712C53.4515 55.7979 53.8389 55.6184 53.9656 55.2701C54.0924 54.9253 53.9163 54.5382 53.5677 54.4115Z" fill="black"/>
<path d="M47.7523 56.6671C45.5339 58.4581 43.2415 61.6319 42.2556 65.717C42.2204 65.8683 42.3119 66.0161 42.4598 66.0548C42.6112 66.09 42.7591 65.9985 42.7979 65.8507C43.7521 61.8923 45.9811 58.81 48.1009 57.1034C48.2206 57.0084 48.2382 56.8325 48.1431 56.7128C48.0481 56.5897 47.872 56.5721 47.7523 56.6671Z" fill="black"/>
<path d="M44.77 56.0578C44.9073 55.9874 44.9636 55.822 44.8932 55.6848C44.8228 55.5476 44.6573 55.4913 44.52 55.5616C43.1643 56.2478 41.5797 57.3526 40.1466 58.841C38.7134 60.3294 37.4317 62.2013 36.6922 64.418C36.6429 64.5623 36.7239 64.7206 36.8683 64.7699C37.0126 64.8191 37.1711 64.7382 37.2204 64.5939C37.9282 62.4722 39.1606 60.6672 40.548 59.228C41.9318 57.7854 43.4742 56.7122 44.77 56.0578Z" fill="black"/>
<path d="M46.5094 56.6316C46.6361 56.5471 46.6714 56.3747 46.5869 56.2445C46.5023 56.1179 46.3298 56.0827 46.1995 56.1671C44.9143 57.0221 43.541 58.1727 42.3332 59.6681C41.1254 61.1636 40.0831 63.0003 39.4598 65.2205C39.4176 65.3683 39.5056 65.5231 39.6535 65.5653C39.8014 65.6076 39.9563 65.5196 39.9986 65.3718C40.6007 63.2325 41.6043 61.4626 42.7698 60.02C43.9353 58.5739 45.2629 57.4585 46.5094 56.6316Z" fill="black"/>
<path d="M57.5752 56.3927C57.4625 56.2871 57.2865 56.2977 57.1808 56.4103C57.0752 56.5229 57.0858 56.6988 57.1984 56.8044C59.2936 58.7255 61.4169 62.1492 62.019 66.4137C62.0402 66.565 62.181 66.6706 62.336 66.6495C62.4874 66.6284 62.593 66.4876 62.5719 66.3328C61.9451 61.931 59.769 58.4089 57.5752 56.3927Z" fill="black"/>
<path d="M67.5887 65.0482C67.0182 62.7506 66.0006 60.7626 64.7928 59.1546C63.585 57.5465 62.187 56.315 60.8525 55.5269C60.7187 55.4495 60.5497 55.4917 60.4722 55.6254C60.3947 55.7591 60.437 55.928 60.5708 56.0054C61.8349 56.7478 63.1801 57.9336 64.3491 59.4888C65.5146 61.0405 66.5006 62.9617 67.0499 65.1819C67.0886 65.3297 67.2365 65.4212 67.3879 65.386C67.5358 65.3508 67.6274 65.1995 67.5887 65.0482Z" fill="black"/>
<path d="M59.1329 56.0262C59.0097 55.9347 58.8371 55.9558 58.7421 56.079C58.6505 56.2021 58.6716 56.3745 58.7949 56.4695C61.2246 58.3203 63.3901 61.3956 64.2493 65.9628C64.2775 66.1141 64.4219 66.2126 64.5733 66.1845C64.7247 66.1563 64.8233 66.012 64.7951 65.8607C63.9148 61.1669 61.6753 57.9579 59.1329 56.0262Z" fill="black"/>
<path d="M39.502 86.4264C39.421 86.1801 39.3083 86.1977 38.185 85.8986C38.1639 85.8916 38.1392 85.8881 38.1181 85.8881C35.206 83.4707 27.755 89.0654 25.7374 87.4398C25.019 86.8522 25.1845 85.0647 25.5754 83.6572C25.3324 83.703 25.0789 83.7382 24.8183 83.7593C24.7725 83.7628 24.7268 83.7663 24.6845 83.7663C24.4944 83.7663 24.35 83.7241 24.2303 83.6607C23.6986 85.6593 23.7373 88.1013 25.5155 88.8015C28.498 89.9837 35.0652 85.4482 37.1744 86.8099C37.1779 86.8416 37.1779 86.8627 37.1885 86.8909C37.1639 87.2533 37.1744 87.6263 37.2272 88.0133C37.3153 88.6009 38.0477 88.527 38.0512 88.0626C38.1075 88.0415 38.1639 87.9993 38.2097 87.9394C38.34 88.0591 38.4702 88.1752 38.6076 88.2843C38.9527 88.5622 39.4069 88.1013 39.1287 87.76C39.0583 87.6755 38.9843 87.5911 38.9104 87.5101C38.9562 87.4926 38.9984 87.4679 39.0372 87.4327C39.2484 87.4503 39.4386 87.2849 39.4386 87.0633C39.6956 86.9366 39.7309 86.5953 39.502 86.4264Z" fill="#75C4F4"/>
</svg>
