<svg width="14" height="14" viewBox="0 0 14 14" fill="none" xmlns="http://www.w3.org/2000/svg">
<path d="M9.77705 10.5961V11.6538C9.77705 12.8202 8.82808 13.7692 7.66157 13.7692H2.34643C1.17993 13.7692 0.230957 12.8202 0.230957 11.6538V2.3461C0.230957 1.17964 1.17993 0.230713 2.34643 0.230713H7.66157C8.82808 0.230713 9.77705 1.17964 9.77705 2.3461V3.40379C9.77705 3.69589 9.5403 3.93264 9.24818 3.93264C8.95606 3.93264 8.71931 3.69589 8.71931 3.40379V2.3461C8.71931 1.76292 8.24477 1.28841 7.66157 1.28841H2.34643C1.76323 1.28841 1.2887 1.76292 1.2887 2.3461V11.6538C1.2887 12.237 1.76323 12.7115 2.34643 12.7115H7.66157C8.24477 12.7115 8.71931 12.237 8.71931 11.6538V10.5961C8.71931 10.304 8.95606 10.0673 9.24818 10.0673C9.5403 10.0673 9.77705 10.304 9.77705 10.5961ZM13.3828 6.09151L12.1985 4.90728C11.9919 4.7007 11.657 4.7007 11.4505 4.90728C11.2439 5.11376 11.2439 5.44863 11.4505 5.6551L12.2929 6.49754H5.94275C5.65063 6.49754 5.41388 6.73428 5.41388 7.02639C5.41388 7.31849 5.65063 7.55523 5.94275 7.55523H12.2929L11.4505 8.39767C11.2439 8.60415 11.2439 8.93901 11.4505 9.14549C11.5538 9.24878 11.6891 9.30042 11.8245 9.30042C11.9599 9.30042 12.0952 9.24878 12.1985 9.14549L13.3828 7.96127C13.8983 7.44574 13.8983 6.60703 13.3828 6.09151Z" fill="white"/>
</svg>
