<svg width="25" height="25" viewBox="0 0 25 25" fill="none" xmlns="http://www.w3.org/2000/svg">
<path d="M14.5155 24.8374C14.4114 24.8544 14.3068 24.87 14.2019 24.8843C14.3068 24.87 14.4114 24.8544 14.5155 24.8374Z"/>
<path d="M14.7655 24.7947C14.7157 24.8038 14.6659 24.8122 14.6161 24.8208C14.6659 24.8122 14.7157 24.8038 14.7655 24.7947Z"/>
<path d="M13.9227 24.9189C13.8008 24.9327 13.6782 24.9449 13.5552 24.9552C13.6782 24.9449 13.8008 24.9327 13.9227 24.9189Z"/>
<path d="M14.1627 24.8896C14.1042 24.8975 14.0452 24.9047 13.9865 24.9116C14.0452 24.9047 14.1042 24.8975 14.1627 24.8896Z"/>
<path d="M15.1054 24.7271C15.0617 24.7364 15.0177 24.7457 14.9738 24.7546C15.0177 24.7457 15.0617 24.7364 15.1054 24.7271Z"/>
<path d="M15.9501 24.5173C15.9148 24.5274 15.8794 24.5369 15.844 24.5468C15.8794 24.5369 15.9148 24.5274 15.9501 24.5173Z"/>
<path d="M15.6947 24.5872C15.6563 24.5972 15.6177 24.6075 15.5791 24.6172C15.6177 24.6075 15.6563 24.5974 15.6947 24.5872Z"/>
<path d="M15.3606 24.6704C15.3199 24.6799 15.2788 24.6889 15.2377 24.698C15.2788 24.6889 15.3199 24.6799 15.3606 24.6704Z"/>
<path d="M13.5512 24.9556C13.4854 24.9611 13.4196 24.9661 13.3536 24.9704C13.4196 24.9661 13.4854 24.9611 13.5512 24.9556Z"/>
<path d="M25 12.5C25 5.5975 19.4025 0 12.5 0C5.5975 0 0 5.5975 0 12.5C0 19.4025 5.5975 25 12.5 25C12.5734 25 12.6465 24.9985 12.7197 24.9971V15.2664H10.0342V12.1367H12.7197V9.83353C12.7197 7.16248 14.3503 5.70869 16.733 5.70869C17.874 5.70869 18.8547 5.79376 19.1406 5.83172V8.62331H17.4976C16.2014 8.62331 15.9504 9.23939 15.9504 10.1433V12.1367H19.0498L18.6459 15.2664H15.9504V24.5171C21.1752 23.0192 25 18.2056 25 12.5Z"/>
<path d="M13.3259 24.9722C13.1958 24.9806 13.0652 24.9872 12.9341 24.9916C13.0652 24.9872 13.1958 24.9806 13.3259 24.9722Z"/>
<path d="M12.9275 24.9922C12.8584 24.9945 12.7892 24.9962 12.72 24.9973C12.7892 24.9962 12.8584 24.9945 12.9275 24.9922Z"/>
</svg>
