<svg width="25" height="18" viewBox="0 0 25 18" fill="none" xmlns="http://www.w3.org/2000/svg">
<path d="M22.4446 1.31102C19.8035 -0.437333 15.5065 -0.437333 12.8653 1.31102L2.77948 7.98755C2.46821 8.1936 2.46821 8.5274 2.77948 8.73346C3.09074 8.93951 3.59501 8.93951 3.90628 8.73346L13.9921 2.05693C15.9499 0.761917 19.3599 0.761917 21.3178 2.05693C23.3371 3.39368 23.3371 5.56908 21.3178 6.90582L7.23426 16.3337C6.02966 17.1311 3.93092 17.1311 2.72637 16.3337C1.48363 15.511 1.48363 14.1727 2.72637 13.3501L16.2465 4.29463C16.6978 3.99587 17.4853 3.99587 17.9367 4.29463C18.4027 4.60316 18.4027 5.10544 17.9367 5.414L4.98071 14.0959C4.71198 14.2738 4.71198 14.6639 4.98071 14.8419C5.29198 15.0479 5.79624 15.0479 6.10751 14.8419L19.0634 6.15988C20.1513 5.4397 20.1513 4.26886 19.0634 3.54872C18.0098 2.85125 16.1717 2.85227 15.1197 3.54872L1.59957 12.6041C-0.249986 13.8285 -0.249986 15.8552 1.59957 17.0795C2.50305 17.6776 3.70372 17.9998 4.98066 17.9998C6.2576 17.9998 7.45838 17.6776 8.36106 17.0796L22.4446 7.6517C25.0857 5.90334 25.0857 3.05934 22.4446 1.31102Z" fill="#114793"/>
</svg>
