<svg width="80" height="80" viewBox="0 0 80 80" fill="none" xmlns="http://www.w3.org/2000/svg">
<path fill-rule="evenodd" clip-rule="evenodd" d="M50.2679 45.0426C56.1378 40.0995 58.6027 36.6815 58.6027 32.8174C58.6027 32.2267 58.5424 31.6359 58.4339 31.021C57.3612 25.1255 50.6054 22.4851 50.6054 22.4851C50.6054 22.4851 52.3772 25.6499 52.3832 28.2239C52.3832 28.2782 52.3832 28.3325 52.3832 28.3807C52.2627 32.5401 49.8942 35.2106 47.574 37.6159C42.0054 43.4089 37.7748 45.6996 37.7748 50.5764C37.7748 55.1579 45.543 58.8049 45.543 58.8049L49.4905 55.176C49.4905 55.176 46.7966 53.5483 46.7966 50.7573C46.7906 49.196 47.6343 47.267 50.2679 45.0426ZM50.0449 26.524C50.8284 34.0773 44.0846 36.573 36.25 45.6213C31.6517 50.914 37.3469 55.1036 37.3469 55.1036L33.0077 58.8049C33.0077 58.8049 26.3242 55.622 25.4986 50.0098C24.5705 43.7164 31.8386 38.8637 36.9853 34.0713C42.126 29.2789 43.5965 25.2279 43.3494 22.3284C43.0119 18.5125 40.5349 15.9084 40.5349 15.9084C40.5349 15.9084 49.2554 18.9707 50.0449 26.524ZM27.9755 38.3211C23.4495 42.3962 23.9196 44.9943 23.9196 44.9943C23.9196 44.9943 20.153 39.6112 22.6239 34.5415C25.1008 29.4718 33.7188 25.9513 34.3938 21.4001C35.0688 16.8488 32.6521 13.7443 32.6521 13.7443C32.6521 13.7443 40.1975 16.1194 40.6977 23.106C41.0532 28.031 34.2733 32.6305 27.9755 38.3211ZM53.4861 61.8431C50.2197 61.8431 47.5378 64.3689 47.2847 67.5759C47.11 67.5578 46.9292 67.5518 46.7484 67.5518C46.5676 67.5518 46.3868 67.5578 46.212 67.5699C45.9589 64.3629 43.271 61.8371 40.0046 61.8371C36.7321 61.8371 34.0503 64.3629 33.7972 67.5699C33.6224 67.5518 33.4416 67.5458 33.2608 67.5458C33.086 67.5458 32.8992 67.5518 32.7245 67.5639C32.4713 64.3569 29.7895 61.8311 26.517 61.8311C23.0819 61.8311 20.2916 64.6161 20.2916 68.0582C20.2916 71.4942 23.0759 74.2853 26.517 74.2853C26.6978 74.2853 26.8787 74.2793 27.0534 74.2672C27.3065 77.4742 29.9884 80 33.2548 80C36.5272 80 39.2151 77.4802 39.4622 74.2672C39.637 74.2853 39.8178 74.2913 39.9986 74.2913C40.1794 74.2913 40.3602 74.2853 40.541 74.2732C40.7941 77.4802 43.4759 80 46.7484 80C50.0148 80 52.6966 77.4802 52.9558 74.2672C53.1305 74.2793 53.3113 74.2913 53.4921 74.2913C56.9333 74.2913 59.7236 71.5063 59.7236 68.0642C59.7116 64.6342 56.9213 61.8431 53.4861 61.8431ZM27.0474 73.2364C26.8726 73.2545 26.6858 73.2605 26.505 73.2605C23.6424 73.2605 21.3161 70.9396 21.3161 68.0763C21.3161 65.2068 23.6424 62.886 26.505 62.886C29.2652 62.886 31.5191 65.0381 31.6879 67.7568C29.1748 68.4018 27.2824 70.5779 27.0474 73.2364ZM31.6397 68.8479C31.3444 70.801 29.9582 72.4045 28.1201 73.0073C28.4094 71.0542 29.7955 69.4507 31.6397 68.8479ZM38.4256 74.1044C38.2629 76.8232 36.009 78.9752 33.2488 78.9752C30.4946 78.9752 28.2407 76.8232 28.0719 74.1105C30.585 73.4594 32.4774 71.2832 32.7064 68.6308C32.8811 68.6067 33.068 68.6007 33.2488 68.6007C33.4356 68.6007 33.6164 68.6128 33.7912 68.6308C34.0262 71.2772 35.9186 73.4534 38.4256 74.1044ZM34.8639 68.8479C36.702 69.4507 38.0821 71.0421 38.3774 73.0013C36.5453 72.3985 35.1592 70.801 34.8639 68.8479ZM39.9925 73.2605C39.8117 73.2605 39.6309 73.2484 39.4501 73.2303C39.2151 70.5779 37.3228 68.4078 34.8157 67.7568C34.9784 65.0381 37.2324 62.886 39.9925 62.886C42.7527 62.886 45.0067 65.032 45.1694 67.7568C42.6563 68.4078 40.7639 70.584 40.5349 73.2364C40.3602 73.2545 40.1794 73.2605 39.9925 73.2605ZM45.1272 68.8479C44.8319 70.801 43.4458 72.4045 41.6137 73.0073C41.903 71.0542 43.2891 69.4507 45.1272 68.8479ZM51.9192 74.1044C51.7504 76.8232 49.4965 78.9752 46.7423 78.9752C43.9822 78.9752 41.7282 76.8232 41.5655 74.1044C44.0725 73.4534 45.9709 71.2712 46.1999 68.6248C46.3747 68.6007 46.5555 68.5947 46.7423 68.5947C46.9231 68.5947 47.1039 68.6067 47.2847 68.6248C47.5137 71.2772 49.4061 73.4534 51.9192 74.1044ZM48.3514 68.8479C50.1835 69.4447 51.5696 71.0421 51.871 73.0013C50.0329 72.4045 48.6467 70.801 48.3514 68.8479ZM53.4861 73.2605C53.3053 73.2605 53.1245 73.2484 52.9437 73.2303C52.7147 70.5779 50.8163 68.4018 48.3092 67.7507C48.472 65.032 50.7259 62.88 53.4861 62.88C56.3487 62.88 58.675 65.2008 58.675 68.0702C58.675 70.9396 56.3487 73.2605 53.4861 73.2605ZM44.9223 8.08982C46.6399 8.35506 47.9235 7.14943 48.2791 4.82858C48.5925 2.79105 47.9356 1.03083 46.0493 0.741473C44.2594 0.470205 42.9938 1.78435 42.6623 3.97258C42.3309 6.41399 43.3313 7.84869 44.9223 8.08982ZM43.6989 4.13533C43.9641 2.36908 44.7777 1.46485 45.8986 1.63967C47.0557 1.81448 47.5137 2.99601 47.2606 4.65376C46.9834 6.46221 46.1698 7.36644 45.0488 7.19765C43.8857 7.0168 43.4337 5.84131 43.6989 4.13533ZM29.7413 9.14475L31.0671 3.01409L32.5858 8.34904L33.5621 8.07173L31.6397 1.19961L30.5669 1.50102L29.2411 7.6558L29.217 7.66182L27.7164 2.30277L26.728 2.58006L28.6505 9.45219L29.7413 9.14475ZM76.0316 45.3199C73.9404 44.9039 72.2288 45.555 71.8491 47.4719C71.7346 48.0326 71.7346 48.557 71.8913 49.0091L71.9094 49.0513L72.8074 49.2141C72.6145 48.768 72.6688 48.1833 72.7351 47.8457C73.0002 46.5135 74.1875 46.0312 75.887 46.3688C77.6769 46.7244 78.5025 47.6648 78.2554 48.9066C78.1771 49.3105 77.9842 49.847 77.6769 50.1726L78.5809 50.3896C78.8943 50.0038 79.057 49.4552 79.1413 49.0272C79.521 47.0982 78.1771 45.7479 76.0316 45.3199ZM38.5823 7.56537L38.5341 4.44278L38.962 4.43674L40.7157 7.5292L41.9211 7.51112L39.7937 3.85804L41.8186 0.373753L40.6675 0.391837L38.9439 3.53251L38.522 3.53855L38.4738 0.428005L37.4493 0.446089L37.5578 7.58345L38.5823 7.56537ZM29.0965 1.50705C28.1925 1.76023 27.6259 1.55528 27.409 0.777641L28.1382 0.536508C28.2648 0.99465 28.5541 1.06096 28.9398 0.952454C29.229 0.874087 29.5545 0.687218 29.4098 0.174822L30.1571 0L30.1451 0.0301427C30.3681 0.819834 29.9643 1.26592 29.0965 1.50705ZM51.5576 4.1715L51.8408 7.56537L52.6062 7.85472L55.1253 5.44948L55.1494 5.46154L53.3173 10.3203L54.2756 10.6819L56.7887 4.00271L55.8063 3.62897L52.6785 6.56469L52.329 2.32085L51.2924 1.92903L48.7793 8.60824L49.7376 8.96994L51.5576 4.1715ZM75.6158 32.5281C73.181 32.9018 72.0902 34.2642 72.3132 35.8677C72.5482 37.5917 74.0669 38.4839 76.3932 38.1584C78.4302 37.8751 79.9369 36.7538 79.6777 34.861C79.4246 33.0646 77.8034 32.2267 75.6158 32.5281ZM78.7737 34.9695C78.9364 36.1269 77.936 36.9045 76.2727 37.1336C74.4587 37.3868 73.3618 36.8623 73.2051 35.7351C73.0424 34.5716 74.0368 33.8 75.7484 33.5649C77.5262 33.3178 78.6231 33.8422 78.7737 34.9695ZM76.3631 39.7016C74.2297 39.6112 72.6386 40.5214 72.5603 42.4685C72.5362 43.0412 72.6145 43.5596 72.8375 43.9816L72.8616 44.0178L73.7716 44.0359C73.5125 43.6259 73.4763 43.0412 73.4884 42.6916C73.5426 41.3352 74.6455 40.6782 76.3751 40.7505C78.2012 40.8289 79.1594 41.6246 79.1052 42.8905C79.0871 43.3004 78.9846 43.8611 78.7255 44.2288L79.6536 44.3071C79.9007 43.8791 79.979 43.3125 79.9971 42.8724C80.0755 40.9193 78.5447 39.792 76.3631 39.7016ZM23.8593 11.7369L22.8468 12.2493L19.6166 5.88954L20.5326 5.42536L23.0518 10.3866L23.0759 10.3745L23.1723 4.08108L24.1667 3.57472L27.403 9.93445L26.4749 10.4046L23.9618 5.45551L23.8593 11.7369ZM70.9512 29.4899L73.2594 28.7363L73.6089 29.8033C73.9103 30.7257 75.0975 31.2019 76.4234 30.7739C77.5684 30.4001 78.4664 29.4477 78.1048 28.3385L77.4238 26.301L70.6378 28.5193L70.9512 29.4899ZM76.8754 27.5548L77.1345 28.3445C77.3635 29.0378 76.7669 29.5562 76.0979 29.7732C75.4591 29.9781 74.6515 29.9721 74.4105 29.2367L74.1513 28.447L76.8754 27.5548ZM67.8234 22.9975L68.3537 23.8776L73.6752 20.6646L74.5009 22.033L75.2843 21.5568L73.1087 17.9519L72.3192 18.4281L73.1388 19.7905L67.8234 22.9975ZM7.17167 42.3781L2.04303 42.4143L5.11056 40.9314L5.10453 40.1115L1.95263 38.6286V38.6045L7.14153 38.5683L7.13551 37.5435L0 37.5978L0.00603249 38.6527L3.86305 40.5154L0.030144 42.3661L0.0361765 43.4692L7.17167 43.415V42.3781ZM17.887 12.0142L21.1353 13.467L22.0935 12.7376L18.2184 11.0557L17.7845 7.04695L16.8685 7.74622L17.3385 11.2968L17.0071 11.55L15.1208 9.07241L14.3072 9.69332L18.6282 15.3719L19.4479 14.751L17.5555 12.2673L17.887 12.0142ZM7.45492 17.114L10.4742 22.6358L10.4562 22.6599L5.8217 19.5795L5.2552 20.4355L11.2035 24.378L11.8302 23.4315L8.82295 17.9278L13.4634 20.972L14.0239 20.1221L8.07566 16.1796L7.45492 17.114ZM16.3261 16.4991C16.5671 16.246 16.9227 15.7878 17.0011 15.3056L17.67 15.9204L17.664 15.9626C17.5555 16.4268 17.2662 16.8668 16.8745 17.2828C15.5245 18.6934 13.7286 18.3257 12.1918 16.8488C10.6129 15.3357 10.203 13.479 11.5651 12.0624C11.8664 11.7489 12.3003 11.3692 12.7704 11.2184L13.4152 11.8876C12.9753 11.9961 12.5293 12.3457 12.2461 12.6471C11.3722 13.5634 11.559 14.7932 12.8789 16.0591C14.1324 17.2527 15.392 17.4817 16.3261 16.4991ZM68.3658 56.9L71.4514 62.3615L66.7868 59.3595L66.2203 60.2396L72.2228 64.0977L72.8255 63.1633L69.7278 57.6837L69.7398 57.6596L74.4225 60.6736L74.977 59.8116L68.9745 55.9536L68.3658 56.9ZM62.6586 7.44481L63.5987 8.04763L59.7598 14.0637L58.8799 13.5031L61.8631 8.82526L56.409 11.9238L55.4568 11.3149L59.2957 5.29878L60.1575 5.85337L57.1623 10.5433L57.1864 10.5614L62.6586 7.44481ZM67.2388 20.4114L66.5277 20.9962L64.2797 18.2714L69.782 13.7262L72.0058 16.4208L71.3007 17.0055L69.7278 15.1006L68.0223 16.5112L69.1734 17.9097L68.4984 18.4643L67.3473 17.0658L65.6418 18.4764L67.2388 20.4114ZM67.8053 12.9244L68.426 12.2432L65.3163 9.40999L64.6956 10.0912L65.8708 11.1582L61.6823 15.7516L62.4416 16.4449L66.6301 11.8514L67.8053 12.9244ZM9.058 29.2427L8.6301 30.2916L2.02495 27.585L2.41667 26.6385L7.5634 28.7484L7.57544 28.7243L3.53763 23.8957L3.95948 22.8649L10.5647 25.5715L10.1669 26.5361L5.03222 24.4322L9.058 29.2427ZM7.53928 35.1925L1.44037 33.9688L1.95865 31.3707L8.05758 32.5944L8.25645 31.5997L1.25958 30.1952L0.337507 34.7947L7.33438 36.1932L7.53928 35.1925ZM8.03347 58.0213C6.31589 59.1546 5.44807 60.8183 6.49669 62.4158C7.49108 63.9289 9.31714 63.9892 11.1613 62.7715C13.1983 61.385 13.59 59.685 12.7041 58.3347C11.7459 56.8759 9.99212 56.7312 8.03347 58.0213ZM10.5887 61.8913C9.10017 62.8739 7.8828 62.8739 7.25603 61.9275C6.61119 60.9509 7.1777 59.8176 8.58189 58.8953C10.1066 57.8886 11.324 57.8886 11.9508 58.835C12.5956 59.8176 12.0291 60.9389 10.5887 61.8913ZM6.34603 18.0785C5.82774 18.8622 5.26727 19.0732 4.59229 18.6271L4.98401 17.97C5.37574 18.2292 5.6409 18.0966 5.85786 17.759C6.0266 17.5058 6.14715 17.1622 5.70118 16.8668L6.15317 16.2459L6.16522 16.2761C6.85225 16.7282 6.84021 17.325 6.34603 18.0785ZM8.16606 48.6113L2.12741 46.8993L7.55736 45.7479L7.34042 44.7231L0.3616 46.206L0.590614 47.2971L6.64133 49.0091L6.64736 49.0332L1.19931 50.1906L1.41626 51.1913L8.39507 49.7084L8.16606 48.6113ZM71.0416 51.0527L71.4574 49.9977L78.0987 52.6079L77.7251 53.5604L72.5422 51.5229L72.5302 51.547L76.6343 56.3153L76.2245 57.3521L69.5832 54.7419L69.9628 53.7714L75.1276 55.8029L71.0416 51.0527ZM10.0464 56.0078C9.66065 55.0855 7.91294 55.5859 5.58667 56.5624L3.75458 57.334L2.25396 53.7654L8.835 51.0044L9.22674 51.9388L3.49544 54.3441L4.22465 56.0802L5.26726 55.6401C8.64216 54.2235 10.203 53.9643 10.9082 55.6401L10.0464 56.0078Z" fill="white"/>
</svg>
