<svg width="70" height="80" viewBox="0 0 70 80" fill="none" xmlns="http://www.w3.org/2000/svg">
<path fill-rule="evenodd" clip-rule="evenodd" d="M8.54264 49.2317L5.19839 46.0397L8.31725 42.3726H6.59944L3.4623 46.0641L3.30392 46.0823V42.3726H0.136334C0.0997846 42.3726 0.0693247 42.3848 0.038867 42.4152C-0.0098652 42.464 -0.0159567 42.5492 0.038867 42.6041C0.0449586 42.6102 0.0571468 42.6163 0.0632384 42.6224C0.379998 42.9026 0.635843 43.2559 0.806406 43.6518V50.4195H3.30392V47.1362L6.76392 50.4195H8.54873C9.30408 50.4195 9.09087 49.7799 8.54264 49.2317ZM13.3062 42.269C15.9012 42.269 18.0028 44.1148 18.0028 46.393C18.0028 48.6712 15.9012 50.517 13.3062 50.517C10.7112 50.517 8.60965 48.6712 8.60965 46.393C8.60965 44.1148 10.7112 42.269 13.3062 42.269ZM13.3062 49.0976C14.5184 49.0976 15.5053 47.8915 15.5053 46.3991C15.5053 44.9067 14.5184 43.7006 13.3062 43.7006C12.094 43.7006 11.1072 44.9067 11.1072 46.3991C11.1072 47.8854 12.094 49.0976 13.3062 49.0976ZM36.4419 42.3726H32.7443C32.7077 42.3726 32.6773 42.3848 32.6468 42.4152C32.5981 42.464 32.592 42.5492 32.6468 42.6041C32.6529 42.6102 32.6651 42.6163 32.6712 42.6224C32.9027 42.8295 33.0976 43.067 33.2499 43.3351L30.1798 50.4256H31.0082C31.8976 50.4256 32.129 49.8956 32.3179 49.457L32.6955 48.586H36.4845L37.2947 50.4317H38.5982C39.3292 50.4317 39.7922 50.0053 39.4023 49.122L36.4419 42.3726ZM33.2682 47.2702L34.5778 44.2427L35.9119 47.2702H33.2682ZM69.1716 49.1098L66.199 42.3665H62.5014C62.4649 42.3665 62.4344 42.3787 62.4039 42.4092C62.3552 42.4579 62.3491 42.5432 62.4039 42.598C62.41 42.6041 62.4222 42.6102 62.4283 42.6163C62.6598 42.8234 62.8547 43.0609 63.0131 43.329L59.943 50.4195H60.7714C61.6608 50.4195 61.8922 49.8896 62.0811 49.451L62.4588 48.5738H66.2477L67.064 50.4195H68.3675C69.0985 50.4195 69.5554 49.9931 69.1716 49.1098ZM63.0253 47.2702L64.335 44.2427L65.669 47.2702H63.0253ZM46.2797 45.7412V42.3726H48.7711V50.4256H46.2797V47.057H43.0146V50.4256H40.5171V43.6579C40.3465 43.262 40.0907 42.9087 39.7739 42.6284C39.7678 42.6223 39.7556 42.6163 39.7495 42.6102C39.7008 42.5553 39.7008 42.4701 39.7495 42.4213C39.7739 42.397 39.8105 42.3787 39.847 42.3787H43.0146V45.7473H46.2797V45.7412ZM58.4018 42.3726H50.8788C50.8422 42.3726 50.8118 42.3848 50.7813 42.4152C50.7326 42.464 50.7265 42.5492 50.7813 42.6041C50.7874 42.6102 50.7996 42.6163 50.8057 42.6224C51.1225 42.9026 51.3783 43.2559 51.5488 43.6518V47.1484C51.5488 48.2327 50.7447 49.1098 49.6665 49.1098V51.5708H51.4696L51.6219 50.4195H57.5855L57.7378 51.5708H59.5409V49.1098H58.4018V42.3726ZM55.9104 49.1098H52.6697C53.0535 48.5433 53.2728 47.8672 53.2728 47.1484H53.2849V43.6762H55.9165V49.1098H55.9104ZM26.6528 42.3726L24.3623 48.2448L22.0232 42.3726H18.2465C18.2099 42.3726 18.1794 42.3848 18.149 42.4152C18.1003 42.464 18.0942 42.5492 18.149 42.6041C18.1551 42.6102 18.1673 42.6163 18.1733 42.6224C18.4901 42.9026 18.7459 43.2559 18.9165 43.6518V50.054V50.4256H19.7084C20.3176 50.4256 20.6404 49.9139 20.6404 49.518V44.9371L22.8517 50.4256H24.2588C24.8497 50.4256 25.3004 50.2185 25.5502 49.5789L27.0609 45.4732V50.4256H28.6569C29.3513 50.4256 29.5584 49.9261 29.5584 49.3169V42.3726H26.6528Z" fill="white"/>
<path fill-rule="evenodd" clip-rule="evenodd" d="M59.4376 52.9717L56.1908 58.2592V52.9717H53.0232C52.9866 52.9717 52.9562 52.9839 52.9257 53.0144C52.877 53.0631 52.8709 53.1484 52.9257 53.2032C52.9318 53.2093 52.944 53.2154 52.9501 53.2215C53.2668 53.5017 53.5227 53.855 53.6933 54.251V61.0186H56.2091L59.4498 55.7312V61.0186H61.9473V52.9656H59.4376V52.9717ZM12.7094 52.9717H6.69102C6.65447 52.9717 6.62401 52.9839 6.59355 53.0144C6.54482 53.0631 6.53873 53.1484 6.59355 53.2032C6.59965 53.2093 6.61182 53.2154 6.61791 53.2215C6.93467 53.5017 7.19051 53.855 7.36107 54.251V61.0186H8.95707C9.65151 61.0186 9.85861 60.5191 9.85861 59.91V58.4115H12.7094C14.208 58.4115 15.4202 57.1932 15.4202 55.6885C15.4202 54.19 14.208 52.9717 12.7094 52.9717ZM11.4729 57.1018H9.85861V54.2814H11.4729C12.2465 54.2814 12.8739 54.9149 12.8739 55.6885C12.8739 56.4683 12.2465 57.1018 11.4729 57.1018ZM30.7282 54.2936C31.4531 54.1961 32.5191 54.4154 33.5303 55.0672L34.243 54.0012C32.9638 53.1606 31.7455 52.8682 30.5211 52.8682C28.0845 52.8682 25.8245 54.7139 25.8245 56.9921C25.8245 59.2704 28.0784 61.1161 30.5211 61.1161C31.7455 61.1161 32.9638 60.8237 34.243 59.9831L34.0542 59.7029C33.7313 59.2094 33.1953 59.1973 32.6287 59.38C32.5435 59.4166 32.4582 59.447 32.3729 59.4775C31.7577 59.6846 31.179 59.7455 30.7282 59.6907C29.3028 59.4958 28.322 58.4846 28.322 56.9921C28.322 55.5058 29.3028 54.4885 30.7282 54.2936ZM39.2441 54.2936C39.969 54.1961 41.0351 54.4154 42.0463 55.0672L42.759 54.0012C41.4797 53.1606 40.2614 52.8682 39.037 52.8682C36.6004 52.8682 34.3405 54.7139 34.3405 56.9921C34.3405 59.2704 36.5943 61.1161 39.037 61.1161C40.2614 61.1161 41.4797 60.8237 42.759 59.9831L42.5701 59.7029C42.2473 59.2094 41.7112 59.1973 41.1447 59.38C41.0594 59.4166 40.9741 59.447 40.8889 59.4775C40.2736 59.6846 39.6949 59.7455 39.2441 59.6907C37.8187 59.4958 36.838 58.4846 36.838 56.9921C36.838 55.5058 37.8187 54.4885 39.2441 54.2936ZM20.531 52.8682C17.936 52.8682 15.8344 54.7139 15.8344 56.9921C15.8344 59.2704 17.936 61.1161 20.531 61.1161C23.126 61.1161 25.2275 59.2704 25.2275 56.9921C25.2275 54.7139 23.126 52.8682 20.531 52.8682ZM20.531 59.6968C19.3188 59.6968 18.3319 58.4906 18.3319 56.9982C18.3319 55.5058 19.3188 54.2997 20.531 54.2997C21.7432 54.2997 22.73 55.5058 22.73 56.9982C22.73 58.4846 21.7432 59.6968 20.531 59.6968ZM46.3042 58.2592V52.9717H43.1366C43.1001 52.9717 43.0696 52.9839 43.0392 53.0144C42.9905 53.0631 42.9844 53.1484 43.0392 53.2032C43.0453 53.2093 43.0575 53.2154 43.0635 53.2215C43.3803 53.5017 43.6361 53.855 43.8067 54.251V61.0186H46.3225L49.5632 55.7312V61.0186H52.0607V52.9656H49.5449L46.3042 58.2592Z" fill="white"/>
<path fill-rule="evenodd" clip-rule="evenodd" d="M33.2324 25.7916C31.7583 26.9673 31.1491 28.8861 31.1674 30.6344C31.1796 32.3461 31.9288 34.0396 33.2324 35.3432L34.1827 36.2934L35.005 37.1158L35.0416 37.1523C35.1086 37.2133 35.1939 37.2498 35.2853 37.2498C35.4802 37.2498 35.6386 37.1036 35.6568 36.9087C35.6568 36.9026 35.6568 36.9026 35.6568 36.9026C35.6629 36.8904 35.6629 36.8782 35.6629 36.8721C35.6629 36.8478 35.6568 36.8234 35.6568 36.799C35.6568 36.799 35.6508 36.799 35.6568 36.7929C35.6142 36.0863 35.6629 35.3797 35.797 34.6853C36.0954 33.1746 36.8325 31.737 37.996 30.5613C38.3188 30.2384 38.6661 29.9461 39.0255 29.6902C39.0255 29.6902 45.4094 24.5977 47.5049 22.9225C50.4044 20.6077 50.1303 16.0269 47.5171 13.3832L45.72 11.574C45.653 11.507 45.5556 11.4644 45.4581 11.4644C45.2571 11.4644 45.0987 11.6227 45.0865 11.8298C45.0926 11.8603 45.0926 11.8847 45.0926 11.9151C45.251 14.5588 44.849 16.033 42.7474 18.1407C42.4245 18.4696 42.0773 18.762 41.7179 19.0118V19.0179C41.7057 19.03 35.3888 24.0738 33.2324 25.7916Z" fill="white"/>
<path fill-rule="evenodd" clip-rule="evenodd" d="M27.5244 20.0595C26.0503 21.2351 25.4411 23.154 25.4594 24.9022C25.4716 26.6139 26.2208 28.3074 27.5244 29.611L28.4747 30.5613L29.297 31.3836L29.3336 31.4202C29.3945 31.4811 29.4859 31.5176 29.5772 31.5176C29.7722 31.5176 29.9306 31.3714 29.9488 31.1765C29.9488 31.1704 29.9488 31.1704 29.9488 31.1704C29.9549 31.1643 29.9549 31.1521 29.9549 31.146C29.9549 31.1217 29.9488 31.0973 29.9488 31.073C29.9488 31.073 29.9427 31.073 29.9488 31.0669C29.9062 30.3603 29.9549 29.6536 30.0889 28.9592C30.3874 27.4485 31.1245 26.0109 32.288 24.8352C32.6108 24.5124 32.9581 24.22 33.3175 23.9641C33.3175 23.9641 39.7014 18.8716 41.7969 17.1964C44.6964 14.8817 44.4223 10.3008 41.809 7.65712L40.012 5.84793C39.945 5.78093 39.8476 5.73828 39.7501 5.73828C39.5491 5.73828 39.3907 5.89666 39.3785 6.10378C39.3846 6.13423 39.3846 6.1586 39.3846 6.18906C39.543 8.83278 39.1409 10.3069 37.0394 12.4146C36.7165 12.7435 36.3693 13.0359 36.0099 13.2857V13.2918C35.9977 13.2979 29.6808 18.3417 27.5244 20.0595Z" fill="white"/>
<path fill-rule="evenodd" clip-rule="evenodd" d="M21.8223 14.3273C20.3481 15.5029 19.739 17.4218 19.7572 19.1701C19.7694 20.8818 20.5187 22.5752 21.8223 23.8788L22.7725 24.8291L23.5949 25.6514L23.6315 25.688C23.6985 25.7489 23.7837 25.7793 23.8751 25.7793C24.064 25.7793 24.2284 25.6332 24.2467 25.4382C24.2467 25.4321 24.2467 25.4321 24.2467 25.4321C24.2528 25.4261 24.2528 25.4139 24.2528 25.4078C24.2528 25.3834 24.2467 25.359 24.2467 25.3347C24.2467 25.3347 24.2406 25.3347 24.2467 25.3286C24.204 24.622 24.2528 23.9154 24.3868 23.2209C24.6853 21.7102 25.4224 20.2726 26.5858 19.0969C26.9087 18.7741 27.2559 18.4817 27.6153 18.2259C27.6153 18.2259 33.9992 13.1333 36.0947 11.4582C38.9943 9.14338 38.7202 4.56256 36.1069 1.91884L34.3099 0.109652C34.2429 0.0426455 34.1454 0 34.048 0C33.8469 0 33.6886 0.158383 33.6764 0.365496C33.6825 0.395953 33.6825 0.420319 33.6825 0.450777C33.8409 3.0945 33.4388 4.56865 31.3372 6.67632C31.0144 7.00526 30.6672 7.29765 30.3078 7.5474V7.5535C30.2956 7.55959 23.9787 12.6034 21.8223 14.3273Z" fill="white"/>
<path fill-rule="evenodd" clip-rule="evenodd" d="M39.8607 71.161C41.8648 71.161 43.5278 72.6413 43.8141 74.5784C44.076 74.6636 44.3562 74.7246 44.6365 74.755C44.4232 72.294 42.3643 70.3569 39.8607 70.3569C39.7206 70.3569 39.5805 70.363 39.4465 70.3752C39.4586 70.5031 39.4647 70.631 39.4647 70.759C39.4647 70.8991 39.4586 71.0392 39.4465 71.1793C39.5805 71.161 39.7206 71.161 39.8607 71.161ZM43.8506 75.4251C44.1126 75.4921 44.3684 75.5408 44.6486 75.5652C44.4476 78.0505 42.3826 79.9998 39.8607 79.9998C37.2109 79.9998 35.0605 77.8434 35.0605 75.1753C35.0605 72.9275 36.5834 71.0453 38.6546 70.5092C38.6546 70.5884 38.6606 70.6737 38.6606 70.759C38.6606 70.96 38.6424 71.161 38.618 71.362C37.0159 71.8859 35.8646 73.3966 35.8646 75.1814C35.8646 77.3987 37.6555 79.2018 39.8607 79.2018C41.9866 79.1957 43.7227 77.5267 43.8506 75.4251Z" fill="white"/>
<path fill-rule="evenodd" clip-rule="evenodd" d="M49.8563 70.7588C49.8563 73.4208 47.706 75.5772 45.0562 75.5772C42.5466 75.5772 40.4937 73.6462 40.2744 71.1791C40.5607 71.2096 40.8348 71.2705 41.1028 71.3558C41.3891 73.2868 43.0522 74.767 45.0562 74.767C47.2614 74.767 49.0583 72.97 49.0583 70.7527C49.0583 68.5293 47.2675 66.7323 45.0562 66.7323C42.9303 66.7323 41.1942 68.4014 41.0663 70.503C40.8105 70.436 40.5485 70.3872 40.2744 70.3629C40.4693 67.8775 42.5344 65.9282 45.0562 65.9282C47.7121 65.9343 49.8563 68.0907 49.8563 70.7588Z" fill="white"/>
<path fill-rule="evenodd" clip-rule="evenodd" d="M29.0592 70.7595C29.0592 68.0914 26.9089 65.9351 24.2591 65.9351C21.6093 65.9351 19.459 68.0914 19.459 70.7595C19.459 73.4215 21.6093 75.5779 24.2591 75.5779C24.3992 75.5779 24.5393 75.5719 24.6733 75.5597C24.6672 75.4317 24.6612 75.3038 24.6612 75.1698C24.6612 75.0297 24.6672 74.8896 24.6794 74.7434C24.5454 74.7556 24.3992 74.7617 24.2591 74.7617C22.054 74.7617 20.2631 72.9647 20.2631 70.7474C20.2631 68.524 22.054 66.727 24.2591 66.727C26.4703 66.727 28.2612 68.524 28.2612 70.7474C28.2612 72.5261 27.1039 74.0429 25.5079 74.5667C25.4774 74.7617 25.4591 74.9627 25.4591 75.1637C25.4591 75.249 25.4652 75.3343 25.4652 75.4135C27.5363 74.8896 29.0592 73.0012 29.0592 70.7595Z" fill="white"/>
<path fill-rule="evenodd" clip-rule="evenodd" d="M34.6581 65.9346C32.1362 65.9346 30.065 67.89 29.8701 70.3692C30.1442 70.3936 30.4062 70.4362 30.662 70.5093C30.7899 68.4077 32.526 66.7387 34.652 66.7387C36.8632 66.7387 38.648 68.5356 38.648 70.7591C38.648 72.5378 37.4906 74.0546 35.8946 74.5785C35.8642 74.7734 35.852 74.9744 35.852 75.1754C35.852 75.2546 35.852 75.346 35.8581 75.4252C37.9231 74.883 39.4521 73.0007 39.4521 70.7591C39.4643 68.091 37.3079 65.9346 34.6581 65.9346ZM34.6581 74.7734C34.7982 74.7734 34.9383 74.7673 35.0784 74.7551C35.0662 74.8952 35.0601 75.0353 35.0601 75.1754C35.0601 75.3094 35.0662 75.4313 35.0784 75.5592C34.9383 75.5714 34.7982 75.5775 34.6641 75.5775C32.1605 75.5775 30.0955 73.6464 29.8823 71.1794C30.1686 71.2098 30.4427 71.2707 30.7108 71.356C30.991 73.287 32.6539 74.7734 34.6581 74.7734Z" fill="white"/>
<path fill-rule="evenodd" clip-rule="evenodd" d="M29.0417 71.1793C29.0539 71.0392 29.06 70.8991 29.06 70.759C29.06 70.631 29.0539 70.5031 29.0478 70.3752C29.1818 70.363 29.3219 70.3569 29.462 70.3569C31.9717 70.3569 34.0307 72.2879 34.2439 74.755C33.9576 74.7246 33.6834 74.6636 33.4154 74.5784C33.1291 72.6413 31.4661 71.161 29.462 71.161C29.3219 71.161 29.1818 71.161 29.0417 71.1793ZM34.2439 75.5652C33.9697 75.5408 33.7078 75.4921 33.452 75.4251C33.324 77.5267 31.5879 79.1957 29.462 79.1957C27.2569 79.1957 25.466 77.3926 25.466 75.1753C25.466 73.3966 26.6233 71.8798 28.2254 71.3559C28.2559 71.161 28.2681 70.9539 28.2681 70.7529C28.2681 70.6676 28.2681 70.5884 28.262 70.5031C26.1969 71.0392 24.668 72.9276 24.668 75.1692C24.668 77.8373 26.8122 79.9937 29.462 79.9937C31.9839 79.9998 34.055 78.0505 34.2439 75.5652Z" fill="white"/>
</svg>
