<svg width="50" height="56" viewBox="0 0 50 56" fill="none" xmlns="http://www.w3.org/2000/svg">
<g clip-path="url(#clip0)">
<path d="M14.5593 28.5813C14.5593 27.1194 13.6244 26.2468 11.9745 26.2468C11.3015 26.2468 10.8456 26.3173 10.6064 26.388V31.0825C10.8891 31.1522 11.2366 31.1761 11.7132 31.1761C13.4735 31.1761 14.5593 30.2092 14.5593 28.5813Z" fill="#01499B"/>
<path d="M24.771 26.2939C24.0316 26.2939 23.5549 26.3646 23.2715 26.4354V36.8367C23.5543 36.9085 24.0106 36.9085 24.4234 36.9085C27.4206 36.9313 29.3757 35.1396 29.3757 31.3419C29.3976 28.0386 27.616 26.2939 24.771 26.2939Z" fill="#01499B"/>
<path d="M44.3383 20.1828H43.1377V13.8925C43.1377 13.8533 43.1319 13.8137 43.1271 13.774C43.1252 13.5242 43.0521 13.2789 42.8946 13.0845L33.2543 1.12693C33.2514 1.12388 33.2486 1.12279 33.2466 1.11944C33.1892 1.04975 33.1222 0.991793 33.0514 0.941621C33.0304 0.926343 33.0092 0.913529 32.9873 0.900321C32.9259 0.863949 32.8608 0.833787 32.7938 0.812003C32.7757 0.806483 32.7593 0.798401 32.7412 0.793275C32.6684 0.774547 32.5928 0.762817 32.5161 0.762817H8.82403C7.74215 0.762817 6.86325 1.71825 6.86325 2.892V20.1823H5.6629C4.11525 20.1823 2.86035 21.5443 2.86035 23.2254V39.0501C2.86035 40.73 4.11525 42.093 5.6629 42.093H6.86334V52.9255C6.86334 54.0991 7.74224 55.0547 8.82412 55.0547H41.177C42.2579 55.0547 43.1378 54.0992 43.1378 52.9255V42.093H44.3384C45.8856 42.093 47.1407 40.73 47.1407 39.0501V23.2259C47.1406 21.5449 45.8855 20.1828 44.3383 20.1828ZM8.82403 2.8924H31.5357V13.7855C31.5357 14.3737 31.9752 14.8501 32.5161 14.8501H41.1769V20.1835H8.82403V2.8924ZM32.8943 31.2229C32.8943 34.2663 31.8737 36.3647 30.4597 37.6627C28.9191 39.0542 26.5726 39.7143 23.7062 39.7143C21.9906 39.7143 20.7744 39.5963 19.948 39.4788V23.8639C21.1643 23.6521 22.751 23.5341 24.4237 23.5341C27.2025 23.5341 29.0059 24.077 30.4185 25.2321C31.9383 26.4587 32.8943 28.416 32.8943 31.2229ZM7.32621 39.5496V23.8639C8.34663 23.6762 9.78099 23.5341 11.8011 23.5341C13.8428 23.5341 15.2985 23.9587 16.2756 24.8084C17.2099 25.6099 17.8383 26.931 17.8383 28.4878C17.8383 30.0451 17.3618 31.3658 16.4922 32.2615C15.3628 33.4175 13.6904 33.9368 11.7349 33.9368C11.3011 33.9368 10.9088 33.9128 10.6061 33.8655V39.55H7.32621V39.5496ZM41.177 52.3492H8.82403V42.093H41.1769V52.3492H41.177ZM44.018 26.6004H38.3909V30.2328H43.648V33.1577H38.3909V39.5497H35.0691V23.6521H44.018V26.6004Z" fill="#01499B"/>
</g>
<defs>
<clipPath id="clip0">
<rect width="50" height="54.2919" fill="white" transform="translate(0 0.762817)"/>
</clipPath>
</defs>
</svg>
