<svg width="21" height="22" viewBox="0 0 21 22" fill="none" xmlns="http://www.w3.org/2000/svg">
<path d="M20.5608 20.4358L14.6416 14.1796C15.7882 12.6827 16.4785 10.7806 16.4785 8.70899C16.4785 3.90754 12.7821 0.000732422 8.23923 0.000732422C3.69637 0.000732422 0 3.9075 0 8.70895C0 13.5104 3.69641 17.4172 8.23927 17.4172C10.1993 17.4172 11.999 16.6876 13.4153 15.4757L19.3345 21.7319C19.5036 21.9107 19.7256 22.0005 19.9477 22.0005C20.1698 22.0005 20.3918 21.9107 20.5609 21.7319C20.9 21.3735 20.9 20.7942 20.5608 20.4358ZM8.23927 15.5839C4.65215 15.5839 1.73459 12.5003 1.73459 8.70895C1.73459 4.91764 4.65215 1.83402 8.23927 1.83402C11.8264 1.83402 14.744 4.91764 14.744 8.70895C14.744 12.5003 11.8264 15.5839 8.23927 15.5839Z" fill="white"/>
</svg>
