<svg width="44" height="44" viewBox="0 0 44 44" fill="none" xmlns="http://www.w3.org/2000/svg">
<path d="M10.6748 44C7.86399 44.0001 5.20956 42.8862 3.16159 40.8384C1.0172 38.6939 -0.102903 35.8841 0.00744016 32.9266C0.121479 29.8721 1.50137 26.9379 3.99802 24.4413L8.49322 19.9278C9.16301 19.2551 10.2512 19.2529 10.9239 19.9228C11.5964 20.5926 11.5987 21.6809 10.9288 22.3534L6.43124 26.8695C2.78656 30.5142 2.44264 35.2579 5.59241 38.4077C8.74226 41.5577 13.4859 41.2137 17.1279 37.5714L23.3057 31.3936C25.1782 29.5211 26.2108 27.3831 26.2918 25.2108C26.3662 23.2196 25.6027 21.3186 24.1421 19.858C23.6527 19.3686 23.1112 18.9534 22.5326 18.6238C21.7078 18.154 21.42 17.1045 21.8898 16.2797C22.3597 15.4549 23.4092 15.1672 24.2339 15.6369C25.0793 16.1185 25.8663 16.7209 26.5728 17.4274C28.7172 19.5718 29.8373 22.3815 29.727 25.3391C29.613 28.3936 28.2331 31.3278 25.7364 33.8244L19.5587 40.0022C17.0619 42.4988 14.1279 43.8787 11.0734 43.9928C10.9404 43.9975 10.8072 44 10.6748 44ZM22.1103 27.7203C22.5801 26.8955 22.2922 25.8459 21.4675 25.3762C20.8889 25.0466 20.3473 24.6314 19.858 24.1421C16.7082 20.9923 17.0521 16.2486 20.6943 12.6064L26.8721 6.42868C30.5143 2.78656 35.2579 2.44255 38.4076 5.59233C41.5574 8.74212 41.2134 13.4858 37.5688 17.1305L33.0712 21.6466C32.4013 22.3191 32.4035 23.4075 33.0761 24.0773C33.7487 24.7471 34.8369 24.7447 35.5068 24.0723L40.002 19.5587C42.4986 17.062 43.8784 14.1278 43.9926 11.0734C44.1029 8.11589 42.9828 5.30607 40.8384 3.16167C38.6939 1.01719 35.8828 -0.102753 32.9267 0.00741904C29.8722 0.121458 26.9381 1.50136 24.4415 3.99802L18.2637 10.1757C15.767 12.6724 14.3872 15.6066 14.2731 18.661C14.1627 21.6185 15.2829 24.4283 17.4272 26.5728C18.1337 27.2792 18.9207 27.8815 19.7662 28.3632C20.0347 28.5161 20.3268 28.5888 20.6152 28.5888C21.2128 28.5887 21.7934 28.2766 22.1103 27.7203Z" fill="#01499B"/>
</svg>
