<svg width="25" height="25" viewBox="0 0 25 25" fill="none" xmlns="http://www.w3.org/2000/svg">
<path d="M12.5 0C5.59751 0 0 5.59751 0 12.5C0 19.4025 5.59751 25 12.5 25C19.4025 25 25 19.4025 25 12.5C25 5.59751 19.4025 0 12.5 0ZM18.771 9.56411V11.2566C17.9729 11.2569 17.1975 11.1005 16.4661 10.792C15.9959 10.5935 15.5577 10.3376 15.157 10.0285L15.169 15.2381C15.164 16.4112 14.6999 17.5134 13.8599 18.3437C13.1763 19.0194 12.3101 19.4492 11.3712 19.5883C11.1506 19.6209 10.9261 19.6377 10.699 19.6377C9.69399 19.6377 8.73984 19.3121 7.95933 18.7114C7.81245 18.5983 7.67197 18.4757 7.53823 18.3437C6.62788 17.4439 6.15845 16.2245 6.2375 14.9416C6.2978 13.9651 6.68877 13.0338 7.34053 12.3039C8.20283 11.3379 9.40918 10.8018 10.699 10.8018C10.9261 10.8018 11.1506 10.8188 11.3712 10.8515V11.4773V13.2181C11.162 13.1491 10.9386 13.1112 10.706 13.1112C9.52759 13.1112 8.57422 14.0726 8.59185 15.2519C8.60303 16.0064 9.01519 16.666 9.6231 17.0296C9.90879 17.2005 10.2375 17.3063 10.5882 17.3256C10.863 17.3407 11.1269 17.3024 11.3712 17.2217C12.2131 16.9436 12.8205 16.1528 12.8205 15.2201L12.8233 11.7314V5.3623H15.1542C15.1564 5.59326 15.1798 5.8186 15.2234 6.03696C15.3993 6.9208 15.8975 7.6876 16.5909 8.21035C17.1955 8.66636 17.9483 8.93667 18.7643 8.93667C18.7648 8.93667 18.7715 8.93667 18.7709 8.93613V9.56411H18.771Z" />
</svg>
